<svg xmlns="http://www.w3.org/2000/svg" width="251" height="47" viewBox="0 0 251 47" fill="none"><g clip-path="url(#clip0_138_3103)"><path d="M88.3998 28.1099C88.3998 17.3099 68.1898 25.4699 68.1898 11.7899C68.1898 6.89994 72.1898 2.18994 79.8598 2.18994C87.5298 2.18994 91.4698 6.98994 91.6198 13.1899H88.2098C88.0698 8.52994 84.9998 5.35994 79.8998 5.35994C74.7998 5.35994 71.6998 7.85994 71.6998 11.6499C71.6998 21.5899 91.9998 14.1399 91.9998 27.8699C91.9998 33.7799 86.8698 37.6699 79.2298 37.6699C70.4498 37.6699 66.7498 32.5299 66.5098 26.6699H69.9698C70.3498 31.8099 73.9698 34.4999 79.3298 34.4999C84.8498 34.4999 88.3998 32.2899 88.3998 28.1099Z" fill="#0F054C"/><path d="M100.21 25.76C100.54 30.71 103.76 34.5 108.9 34.5C110.557 34.5564 112.19 34.0905 113.568 33.1682C114.946 32.2458 116 30.9137 116.58 29.36H120.13C119.423 31.7836 117.932 33.9042 115.891 35.3899C113.849 36.8755 111.373 37.6423 108.85 37.57C101.12 37.57 96.8496 31.62 96.8496 24.75C96.8496 17.88 101.46 12 108.8 12C116.14 12 120.56 17.57 120.56 24.49C120.56 25.01 120.56 25.78 120.56 25.78L100.21 25.76ZM100.3 23H117.15C116.72 18.29 113.6 15.08 108.8 15.08C104 15.08 100.88 18.46 100.3 23Z" fill="#0F054C"/><path d="M136.299 37.57C128.819 37.57 124.779 31.52 124.779 24.8C124.779 18.08 128.819 12 136.299 12C140.769 12 143.889 14 145.569 17.09V12.56H148.829V47H145.419V32.58C143.789 35.55 140.769 37.57 136.299 37.57ZM136.999 15.06C131.519 15.06 128.259 19.38 128.259 24.8C128.259 30.22 131.519 34.55 136.999 34.55C142.479 34.55 145.589 30.18 145.589 24.8C145.589 19.42 142.449 15.06 136.999 15.06Z" fill="#0F054C"/><path d="M156.51 27.7301V12.5601H159.92V27.4901C159.92 31.9101 162.27 34.5901 166.64 34.5901C171.01 34.5901 173.36 31.9101 173.36 27.4901V12.5601H176.77V27.7301C176.77 33.1501 173.55 37.5701 166.64 37.5701C159.73 37.5701 156.51 33.1501 156.51 27.7301Z" fill="#0F054C"/><path d="M186 25.76C186.34 30.71 189.55 34.5 194.69 34.5C196.348 34.558 197.981 34.0927 199.36 33.1701C200.738 32.2476 201.791 30.9145 202.37 29.36H205.92C205.213 31.7836 203.722 33.9042 201.681 35.3899C199.64 36.8755 197.163 37.6423 194.64 37.57C186.91 37.57 182.59 31.62 182.59 24.75C182.59 17.88 187.23 12 194.57 12C201.91 12 206.34 17.57 206.34 24.49C206.34 25.01 206.29 25.78 206.29 25.78L186 25.76ZM186.1 22.98H202.95C202.52 18.27 199.39 15.06 194.59 15.06C189.79 15.06 186.65 18.46 186.08 23L186.1 22.98Z" fill="#0F054C"/><path d="M215.649 16.3C216.476 14.9195 217.663 13.7901 219.083 13.0326C220.503 12.2751 222.102 11.9182 223.709 12C229.709 12 232.969 16 232.969 21.41V37H229.569V22.07C229.569 17.65 227.499 14.96 223.129 14.96C219.009 14.96 215.789 17.55 215.789 22.45V37H212.379V12.56H215.649V16.3Z" fill="#0F054C"/><path d="M245 37.0001H241.59V15.4401H237V12.5601H241.65V5.56006H245V12.5601H250V15.4401H245V37.0001Z" fill="#0F054C"/><path d="M49.7801 16.4C54.3088 16.4 57.9801 12.7287 57.9801 8.2C57.9801 3.67126 54.3088 0 49.7801 0C45.2513 0 41.5801 3.67126 41.5801 8.2C41.5801 12.7287 45.2513 16.4 49.7801 16.4Z" fill="#0F054C"/><path d="M8.2 16.4C12.7287 16.4 16.4 12.7287 16.4 8.2C16.4 3.67126 12.7287 0 8.2 0C3.67126 0 0 3.67126 0 8.2C0 12.7287 3.67126 16.4 8.2 16.4Z" fill="#0F054C"/><path d="M8.2 36.25C12.7287 36.25 16.4 32.5787 16.4 28.05C16.4 23.5212 12.7287 19.85 8.2 19.85C3.67126 19.85 0 23.5212 0 28.05C0 32.5787 3.67126 36.25 8.2 36.25Z" fill="#0F054C"/><path d="M28.9891 36.2501C33.5178 36.2501 37.1891 32.5788 37.1891 28.0501C37.1891 23.5214 33.5178 19.8501 28.9891 19.8501C24.4603 19.8501 20.7891 23.5214 20.7891 28.0501C20.7891 32.5788 24.4603 36.2501 28.9891 36.2501Z" fill="#0F054C"/><path d="M28.9891 16.4C33.5178 16.4 37.1891 12.7287 37.1891 8.2C37.1891 3.67126 33.5178 0 28.9891 0C24.4603 0 20.7891 3.67126 20.7891 8.2C20.7891 12.7287 24.4603 16.4 28.9891 16.4Z" fill="#43E3A1"/></g><defs><clipPath id="clip0_138_3103"><rect width="250.01" height="46.98" fill="white"/></clipPath></defs></svg>