<svg xmlns="http://www.w3.org/2000/svg" width="250" height="47.5" viewBox="0 0 250 47.5">
  <g id="Group_6855" data-name="Group 6855" transform="translate(-15467 3798.5)">
    <g id="Layer_2" data-name="Layer 2" transform="translate(15467 -3934)">
      <g id="Logo" transform="translate(0 136)">
        <path id="Path_642" data-name="Path 642" d="M88.4,28.11c0-10.8-20.21-2.64-20.21-16.32,0-4.89,4-9.6,11.67-9.6s11.61,4.8,11.76,11H88.21C88.07,8.53,85,5.36,79.9,5.36s-8.2,2.5-8.2,6.29c0,9.94,20.3,2.49,20.3,16.22,0,5.91-5.13,9.8-12.77,9.8-8.78,0-12.48-5.14-12.72-11h3.46c.38,5.14,4,7.83,9.36,7.83C84.85,34.5,88.4,32.29,88.4,28.11Z" fill="#05003b"/>
        <path id="Path_643" data-name="Path 643" d="M100.21,25.76c.33,4.95,3.55,8.74,8.69,8.74a7.91,7.91,0,0,0,7.68-5.14h3.55a11.41,11.41,0,0,1-11.28,8.21c-7.73,0-12-5.95-12-12.82S101.46,12,108.8,12s11.76,5.57,11.76,12.49v1.29ZM100.3,23h16.85c-.43-4.71-3.55-7.92-8.35-7.92S100.88,18.46,100.3,23Z" fill="#05003b"/>
        <path id="Path_644" data-name="Path 644" d="M136.3,37.57c-7.48,0-11.52-6.05-11.52-12.77S128.82,12,136.3,12c4.47,0,7.59,2,9.27,5.09V12.56h3.26V47h-3.41V32.58C143.79,35.55,140.77,37.57,136.3,37.57Zm.7-22.51c-5.48,0-8.74,4.32-8.74,9.74s3.26,9.75,8.74,9.75,8.59-4.37,8.59-9.75S142.45,15.06,137,15.06Z" fill="#05003b"/>
        <path id="Path_645" data-name="Path 645" d="M156.51,27.73V12.56h3.41V27.49c0,4.42,2.35,7.1,6.72,7.1s6.72-2.68,6.72-7.1V12.56h3.41V27.73c0,5.42-3.22,9.84-10.13,9.84S156.51,33.15,156.51,27.73Z" fill="#05003b"/>
        <path id="Path_646" data-name="Path 646" d="M186,25.76c.34,4.95,3.55,8.74,8.69,8.74a7.9,7.9,0,0,0,7.68-5.14h3.55a11.41,11.41,0,0,1-11.28,8.21c-7.73,0-12.05-5.95-12.05-12.82S187.23,12,194.57,12s11.77,5.57,11.77,12.49c0,.52-.05,1.29-.05,1.29Zm.1-2.78h16.85c-.43-4.71-3.56-7.92-8.36-7.92s-7.94,3.4-8.51,7.94Z" fill="#05003b"/>
        <path id="Path_647" data-name="Path 647" d="M215.65,16.3a8.87,8.87,0,0,1,8.06-4.3c6,0,9.26,4,9.26,9.41V37h-3.4V22.07c0-4.42-2.07-7.11-6.44-7.11-4.12,0-7.34,2.59-7.34,7.49V37h-3.41V12.56h3.27Z" fill="#05003b"/>
        <path id="Path_648" data-name="Path 648" d="M245,37h-3.41V15.44H237V12.56h4.65v-7H245v7h5v2.88h-5Z" fill="#05003b"/>
        <circle id="Ellipse_95" data-name="Ellipse 95" cx="8.2" cy="8.2" r="8.2" transform="translate(41.58 0)" fill="#05003b"/>
        <circle id="Ellipse_96" data-name="Ellipse 96" cx="8.2" cy="8.2" r="8.2" transform="translate(0 0)" fill="#05003b"/>
        <circle id="Ellipse_97" data-name="Ellipse 97" cx="8.2" cy="8.2" r="8.2" transform="translate(0 19.85)" fill="#05003b"/>
        <circle id="Ellipse_98" data-name="Ellipse 98" cx="8.2" cy="8.2" r="8.2" transform="translate(20.79 19.85)" fill="#05003b"/>
        <circle id="Ellipse_99" data-name="Ellipse 99" cx="8.2" cy="8.2" r="8.2" transform="translate(20.79 0)" fill="#05003b"/>
      </g>
      <g id="Logo-2" data-name="Logo" transform="translate(0 136)">
        <path id="Path_642-2" data-name="Path 642" d="M88.4,28.11c0-10.8-20.21-2.64-20.21-16.32,0-4.89,4-9.6,11.67-9.6s11.61,4.8,11.76,11H88.21C88.07,8.53,85,5.36,79.9,5.36s-8.2,2.5-8.2,6.29c0,9.94,20.3,2.49,20.3,16.22,0,5.91-5.13,9.8-12.77,9.8-8.78,0-12.48-5.14-12.72-11h3.46c.38,5.14,4,7.83,9.36,7.83C84.85,34.5,88.4,32.29,88.4,28.11Z" fill="#05003b"/>
        <path id="Path_643-2" data-name="Path 643" d="M100.21,25.76c.33,4.95,3.55,8.74,8.69,8.74a7.91,7.91,0,0,0,7.68-5.14h3.55a11.41,11.41,0,0,1-11.28,8.21c-7.73,0-12-5.95-12-12.82S101.46,12,108.8,12s11.76,5.57,11.76,12.49v1.29ZM100.3,23h16.85c-.43-4.71-3.55-7.92-8.35-7.92S100.88,18.46,100.3,23Z" fill="#05003b"/>
        <path id="Path_644-2" data-name="Path 644" d="M136.3,37.57c-7.48,0-11.52-6.05-11.52-12.77S128.82,12,136.3,12c4.47,0,7.59,2,9.27,5.09V12.56h3.26V47h-3.41V32.58C143.79,35.55,140.77,37.57,136.3,37.57Zm.7-22.51c-5.48,0-8.74,4.32-8.74,9.74s3.26,9.75,8.74,9.75,8.59-4.37,8.59-9.75S142.45,15.06,137,15.06Z" fill="#05003b"/>
        <path id="Path_645-2" data-name="Path 645" d="M156.51,27.73V12.56h3.41V27.49c0,4.42,2.35,7.1,6.72,7.1s6.72-2.68,6.72-7.1V12.56h3.41V27.73c0,5.42-3.22,9.84-10.13,9.84S156.51,33.15,156.51,27.73Z" fill="#05003b"/>
        <path id="Path_646-2" data-name="Path 646" d="M186,25.76c.34,4.95,3.55,8.74,8.69,8.74a7.9,7.9,0,0,0,7.68-5.14h3.55a11.41,11.41,0,0,1-11.28,8.21c-7.73,0-12.05-5.95-12.05-12.82S187.23,12,194.57,12s11.77,5.57,11.77,12.49c0,.52-.05,1.29-.05,1.29Zm.1-2.78h16.85c-.43-4.71-3.56-7.92-8.36-7.92s-7.94,3.4-8.51,7.94Z" fill="#05003b"/>
        <path id="Path_647-2" data-name="Path 647" d="M215.65,16.3a8.87,8.87,0,0,1,8.06-4.3c6,0,9.26,4,9.26,9.41V37h-3.4V22.07c0-4.42-2.07-7.11-6.44-7.11-4.12,0-7.34,2.59-7.34,7.49V37h-3.41V12.56h3.27Z" fill="#05003b"/>
        <path id="Path_648-2" data-name="Path 648" d="M245,37h-3.41V15.44H237V12.56h4.65v-7H245v7h5v2.88h-5Z" fill="#05003b"/>
        <circle id="Ellipse_95-2" data-name="Ellipse 95" cx="8.2" cy="8.2" r="8.2" transform="translate(41.58 0)" fill="#05003b"/>
        <circle id="Ellipse_96-2" data-name="Ellipse 96" cx="8.2" cy="8.2" r="8.2" transform="translate(0 0)" fill="#05003b"/>
        <circle id="Ellipse_97-2" data-name="Ellipse 97" cx="8.2" cy="8.2" r="8.2" transform="translate(0 19.85)" fill="#05003b"/>
        <circle id="Ellipse_98-2" data-name="Ellipse 98" cx="8.2" cy="8.2" r="8.2" transform="translate(20.79 19.85)" fill="#05003b"/>
        <circle id="Ellipse_99-2" data-name="Ellipse 99" cx="8.2" cy="8.2" r="8.2" transform="translate(20.79 0)" fill="#05003b"/>
      </g>
      <g id="Logo-3" data-name="Logo" transform="translate(0 136)">
        <path id="Path_642-3" data-name="Path 642" d="M88.4,28.11c0-10.8-20.21-2.64-20.21-16.32,0-4.89,4-9.6,11.67-9.6s11.61,4.8,11.76,11H88.21C88.07,8.53,85,5.36,79.9,5.36s-8.2,2.5-8.2,6.29c0,9.94,20.3,2.49,20.3,16.22,0,5.91-5.13,9.8-12.77,9.8-8.78,0-12.48-5.14-12.72-11h3.46c.38,5.14,4,7.83,9.36,7.83C84.85,34.5,88.4,32.29,88.4,28.11Z" fill="#05003b"/>
        <path id="Path_643-3" data-name="Path 643" d="M100.21,25.76c.33,4.95,3.55,8.74,8.69,8.74a7.91,7.91,0,0,0,7.68-5.14h3.55a11.41,11.41,0,0,1-11.28,8.21c-7.73,0-12-5.95-12-12.82S101.46,12,108.8,12s11.76,5.57,11.76,12.49v1.29ZM100.3,23h16.85c-.43-4.71-3.55-7.92-8.35-7.92S100.88,18.46,100.3,23Z" fill="#05003b"/>
        <path id="Path_644-3" data-name="Path 644" d="M136.3,37.57c-7.48,0-11.52-6.05-11.52-12.77S128.82,12,136.3,12c4.47,0,7.59,2,9.27,5.09V12.56h3.26V47h-3.41V32.58C143.79,35.55,140.77,37.57,136.3,37.57Zm.7-22.51c-5.48,0-8.74,4.32-8.74,9.74s3.26,9.75,8.74,9.75,8.59-4.37,8.59-9.75S142.45,15.06,137,15.06Z" fill="#05003b"/>
        <path id="Path_645-3" data-name="Path 645" d="M156.51,27.73V12.56h3.41V27.49c0,4.42,2.35,7.1,6.72,7.1s6.72-2.68,6.72-7.1V12.56h3.41V27.73c0,5.42-3.22,9.84-10.13,9.84S156.51,33.15,156.51,27.73Z" fill="#05003b"/>
        <path id="Path_646-3" data-name="Path 646" d="M186,25.76c.34,4.95,3.55,8.74,8.69,8.74a7.9,7.9,0,0,0,7.68-5.14h3.55a11.41,11.41,0,0,1-11.28,8.21c-7.73,0-12.05-5.95-12.05-12.82S187.23,12,194.57,12s11.77,5.57,11.77,12.49c0,.52-.05,1.29-.05,1.29Zm.1-2.78h16.85c-.43-4.71-3.56-7.92-8.36-7.92s-7.94,3.4-8.51,7.94Z" fill="#05003b"/>
        <path id="Path_647-3" data-name="Path 647" d="M215.65,16.3a8.87,8.87,0,0,1,8.06-4.3c6,0,9.26,4,9.26,9.41V37h-3.4V22.07c0-4.42-2.07-7.11-6.44-7.11-4.12,0-7.34,2.59-7.34,7.49V37h-3.41V12.56h3.27Z" fill="#05003b"/>
        <path id="Path_648-3" data-name="Path 648" d="M245,37h-3.41V15.44H237V12.56h4.65v-7H245v7h5v2.88h-5Z" fill="#05003b"/>
        <circle id="Ellipse_95-3" data-name="Ellipse 95" cx="8.2" cy="8.2" r="8.2" transform="translate(41.58 0)" fill="#05003b"/>
        <circle id="Ellipse_96-3" data-name="Ellipse 96" cx="8.2" cy="8.2" r="8.2" transform="translate(0 0)" fill="#05003b"/>
        <circle id="Ellipse_97-3" data-name="Ellipse 97" cx="8.2" cy="8.2" r="8.2" transform="translate(0 19.85)" fill="#05003b"/>
        <circle id="Ellipse_98-3" data-name="Ellipse 98" cx="8.2" cy="8.2" r="8.2" transform="translate(20.79 19.85)" fill="#05003b"/>
        <circle id="Ellipse_99-3" data-name="Ellipse 99" cx="8.2" cy="8.2" r="8.2" transform="translate(20.79 0)" fill="#05003b"/>
      </g>
      <g id="Logo-4" data-name="Logo" transform="translate(0 136)">
        <path id="Path_642-4" data-name="Path 642" d="M88.4,28.11c0-10.8-20.21-2.64-20.21-16.32,0-4.89,4-9.6,11.67-9.6s11.61,4.8,11.76,11H88.21C88.07,8.53,85,5.36,79.9,5.36s-8.2,2.5-8.2,6.29c0,9.94,20.3,2.49,20.3,16.22,0,5.91-5.13,9.8-12.77,9.8-8.78,0-12.48-5.14-12.72-11h3.46c.38,5.14,4,7.83,9.36,7.83C84.85,34.5,88.4,32.29,88.4,28.11Z" fill="#05003b"/>
        <path id="Path_643-4" data-name="Path 643" d="M100.21,25.76c.33,4.95,3.55,8.74,8.69,8.74a7.91,7.91,0,0,0,7.68-5.14h3.55a11.41,11.41,0,0,1-11.28,8.21c-7.73,0-12-5.95-12-12.82S101.46,12,108.8,12s11.76,5.57,11.76,12.49v1.29ZM100.3,23h16.85c-.43-4.71-3.55-7.92-8.35-7.92S100.88,18.46,100.3,23Z" fill="#05003b"/>
        <path id="Path_644-4" data-name="Path 644" d="M136.3,37.57c-7.48,0-11.52-6.05-11.52-12.77S128.82,12,136.3,12c4.47,0,7.59,2,9.27,5.09V12.56h3.26V47h-3.41V32.58C143.79,35.55,140.77,37.57,136.3,37.57Zm.7-22.51c-5.48,0-8.74,4.32-8.74,9.74s3.26,9.75,8.74,9.75,8.59-4.37,8.59-9.75S142.45,15.06,137,15.06Z" fill="#05003b"/>
        <path id="Path_645-4" data-name="Path 645" d="M156.51,27.73V12.56h3.41V27.49c0,4.42,2.35,7.1,6.72,7.1s6.72-2.68,6.72-7.1V12.56h3.41V27.73c0,5.42-3.22,9.84-10.13,9.84S156.51,33.15,156.51,27.73Z" fill="#05003b"/>
        <path id="Path_646-4" data-name="Path 646" d="M186,25.76c.34,4.95,3.55,8.74,8.69,8.74a7.9,7.9,0,0,0,7.68-5.14h3.55a11.41,11.41,0,0,1-11.28,8.21c-7.73,0-12.05-5.95-12.05-12.82S187.23,12,194.57,12s11.77,5.57,11.77,12.49c0,.52-.05,1.29-.05,1.29Zm.1-2.78h16.85c-.43-4.71-3.56-7.92-8.36-7.92s-7.94,3.4-8.51,7.94Z" fill="#05003b"/>
        <path id="Path_647-4" data-name="Path 647" d="M215.65,16.3a8.87,8.87,0,0,1,8.06-4.3c6,0,9.26,4,9.26,9.41V37h-3.4V22.07c0-4.42-2.07-7.11-6.44-7.11-4.12,0-7.34,2.59-7.34,7.49V37h-3.41V12.56h3.27Z" fill="#05003b"/>
        <path id="Path_648-4" data-name="Path 648" d="M245,37h-3.41V15.44H237V12.56h4.65v-7H245v7h5v2.88h-5Z" fill="#05003b"/>
        <circle id="Ellipse_95-4" data-name="Ellipse 95" cx="8.2" cy="8.2" r="8.2" transform="translate(41.58 0)" fill="#05003b"/>
        <circle id="Ellipse_96-4" data-name="Ellipse 96" cx="8.2" cy="8.2" r="8.2" transform="translate(0 0)" fill="#05003b"/>
        <circle id="Ellipse_97-4" data-name="Ellipse 97" cx="8.2" cy="8.2" r="8.2" transform="translate(0 19.85)" fill="#05003b"/>
        <circle id="Ellipse_98-4" data-name="Ellipse 98" cx="8.2" cy="8.2" r="8.2" transform="translate(20.79 19.85)" fill="#05003b"/>
        <circle id="Ellipse_99-4" data-name="Ellipse 99" cx="8.2" cy="8.2" r="8.2" transform="translate(20.79 0)" fill="#05003b"/>
      </g>
    </g>
    <g id="Layer_2-2" data-name="Layer 2" transform="translate(15467 -3934)">
      <g id="Logo-5" data-name="Logo" transform="translate(0 136)">
        <path id="Path_642-5" data-name="Path 642" d="M88.4,28.11c0-10.8-20.21-2.64-20.21-16.32,0-4.89,4-9.6,11.67-9.6s11.61,4.8,11.76,11H88.21C88.07,8.53,85,5.36,79.9,5.36s-8.2,2.5-8.2,6.29c0,9.94,20.3,2.49,20.3,16.22,0,5.91-5.13,9.8-12.77,9.8-8.78,0-12.48-5.14-12.72-11h3.46c.38,5.14,4,7.83,9.36,7.83C84.85,34.5,88.4,32.29,88.4,28.11Z" fill="#05003b"/>
        <path id="Path_643-5" data-name="Path 643" d="M100.21,25.76c.33,4.95,3.55,8.74,8.69,8.74a7.91,7.91,0,0,0,7.68-5.14h3.55a11.41,11.41,0,0,1-11.28,8.21c-7.73,0-12-5.95-12-12.82S101.46,12,108.8,12s11.76,5.57,11.76,12.49v1.29ZM100.3,23h16.85c-.43-4.71-3.55-7.92-8.35-7.92S100.88,18.46,100.3,23Z" fill="#05003b"/>
        <path id="Path_644-5" data-name="Path 644" d="M136.3,37.57c-7.48,0-11.52-6.05-11.52-12.77S128.82,12,136.3,12c4.47,0,7.59,2,9.27,5.09V12.56h3.26V47h-3.41V32.58C143.79,35.55,140.77,37.57,136.3,37.57Zm.7-22.51c-5.48,0-8.74,4.32-8.74,9.74s3.26,9.75,8.74,9.75,8.59-4.37,8.59-9.75S142.45,15.06,137,15.06Z" fill="#05003b"/>
        <path id="Path_645-5" data-name="Path 645" d="M156.51,27.73V12.56h3.41V27.49c0,4.42,2.35,7.1,6.72,7.1s6.72-2.68,6.72-7.1V12.56h3.41V27.73c0,5.42-3.22,9.84-10.13,9.84S156.51,33.15,156.51,27.73Z" fill="#05003b"/>
        <path id="Path_646-5" data-name="Path 646" d="M186,25.76c.34,4.95,3.55,8.74,8.69,8.74a7.9,7.9,0,0,0,7.68-5.14h3.55a11.41,11.41,0,0,1-11.28,8.21c-7.73,0-12.05-5.95-12.05-12.82S187.23,12,194.57,12s11.77,5.57,11.77,12.49c0,.52-.05,1.29-.05,1.29Zm.1-2.78h16.85c-.43-4.71-3.56-7.92-8.36-7.92s-7.94,3.4-8.51,7.94Z" fill="#05003b"/>
        <path id="Path_647-5" data-name="Path 647" d="M215.65,16.3a8.87,8.87,0,0,1,8.06-4.3c6,0,9.26,4,9.26,9.41V37h-3.4V22.07c0-4.42-2.07-7.11-6.44-7.11-4.12,0-7.34,2.59-7.34,7.49V37h-3.41V12.56h3.27Z" fill="#05003b"/>
        <path id="Path_648-5" data-name="Path 648" d="M245,37h-3.41V15.44H237V12.56h4.65v-7H245v7h5v2.88h-5Z" fill="#05003b"/>
        <circle id="Ellipse_95-5" data-name="Ellipse 95" cx="8.2" cy="8.2" r="8.2" transform="translate(41.58 0)" fill="#05003b"/>
        <circle id="Ellipse_96-5" data-name="Ellipse 96" cx="8.2" cy="8.2" r="8.2" transform="translate(0 0)" fill="#05003b"/>
        <circle id="Ellipse_97-5" data-name="Ellipse 97" cx="8.2" cy="8.2" r="8.2" transform="translate(0 19.85)" fill="#05003b"/>
        <circle id="Ellipse_98-5" data-name="Ellipse 98" cx="8.2" cy="8.2" r="8.2" transform="translate(20.79 19.85)" fill="#05003b"/>
        <circle id="Ellipse_99-5" data-name="Ellipse 99" cx="8.2" cy="8.2" r="8.2" transform="translate(20.79 0)" fill="#05003b"/>
      </g>
      <g id="Logo-6" data-name="Logo" transform="translate(0 136)">
        <path id="Path_642-6" data-name="Path 642" d="M88.4,28.11c0-10.8-20.21-2.64-20.21-16.32,0-4.89,4-9.6,11.67-9.6s11.61,4.8,11.76,11H88.21C88.07,8.53,85,5.36,79.9,5.36s-8.2,2.5-8.2,6.29c0,9.94,20.3,2.49,20.3,16.22,0,5.91-5.13,9.8-12.77,9.8-8.78,0-12.48-5.14-12.72-11h3.46c.38,5.14,4,7.83,9.36,7.83C84.85,34.5,88.4,32.29,88.4,28.11Z" fill="#05003b"/>
        <path id="Path_643-6" data-name="Path 643" d="M100.21,25.76c.33,4.95,3.55,8.74,8.69,8.74a7.91,7.91,0,0,0,7.68-5.14h3.55a11.41,11.41,0,0,1-11.28,8.21c-7.73,0-12-5.95-12-12.82S101.46,12,108.8,12s11.76,5.57,11.76,12.49v1.29ZM100.3,23h16.85c-.43-4.71-3.55-7.92-8.35-7.92S100.88,18.46,100.3,23Z" fill="#05003b"/>
        <path id="Path_644-6" data-name="Path 644" d="M136.3,37.57c-7.48,0-11.52-6.05-11.52-12.77S128.82,12,136.3,12c4.47,0,7.59,2,9.27,5.09V12.56h3.26V47h-3.41V32.58C143.79,35.55,140.77,37.57,136.3,37.57Zm.7-22.51c-5.48,0-8.74,4.32-8.74,9.74s3.26,9.75,8.74,9.75,8.59-4.37,8.59-9.75S142.45,15.06,137,15.06Z" fill="#05003b"/>
        <path id="Path_645-6" data-name="Path 645" d="M156.51,27.73V12.56h3.41V27.49c0,4.42,2.35,7.1,6.72,7.1s6.72-2.68,6.72-7.1V12.56h3.41V27.73c0,5.42-3.22,9.84-10.13,9.84S156.51,33.15,156.51,27.73Z" fill="#05003b"/>
        <path id="Path_646-6" data-name="Path 646" d="M186,25.76c.34,4.95,3.55,8.74,8.69,8.74a7.9,7.9,0,0,0,7.68-5.14h3.55a11.41,11.41,0,0,1-11.28,8.21c-7.73,0-12.05-5.95-12.05-12.82S187.23,12,194.57,12s11.77,5.57,11.77,12.49c0,.52-.05,1.29-.05,1.29Zm.1-2.78h16.85c-.43-4.71-3.56-7.92-8.36-7.92s-7.94,3.4-8.51,7.94Z" fill="#05003b"/>
        <path id="Path_647-6" data-name="Path 647" d="M215.65,16.3a8.87,8.87,0,0,1,8.06-4.3c6,0,9.26,4,9.26,9.41V37h-3.4V22.07c0-4.42-2.07-7.11-6.44-7.11-4.12,0-7.34,2.59-7.34,7.49V37h-3.41V12.56h3.27Z" fill="#05003b"/>
        <path id="Path_648-6" data-name="Path 648" d="M245,37h-3.41V15.44H237V12.56h4.65v-7H245v7h5v2.88h-5Z" fill="#05003b"/>
        <circle id="Ellipse_95-6" data-name="Ellipse 95" cx="8.2" cy="8.2" r="8.2" transform="translate(41.58 0)" fill="#05003b"/>
        <circle id="Ellipse_96-6" data-name="Ellipse 96" cx="8.2" cy="8.2" r="8.2" transform="translate(0 0)" fill="#05003b"/>
        <circle id="Ellipse_97-6" data-name="Ellipse 97" cx="8.2" cy="8.2" r="8.2" transform="translate(0 19.85)" fill="#05003b"/>
        <circle id="Ellipse_98-6" data-name="Ellipse 98" cx="8.2" cy="8.2" r="8.2" transform="translate(20.79 19.85)" fill="#05003b"/>
        <circle id="Ellipse_99-6" data-name="Ellipse 99" cx="8.2" cy="8.2" r="8.2" transform="translate(20.79 0)" fill="#05003b"/>
      </g>
      <g id="Logo-7" data-name="Logo" transform="translate(0 136)">
        <path id="Path_642-7" data-name="Path 642" d="M88.4,28.11c0-10.8-20.21-2.64-20.21-16.32,0-4.89,4-9.6,11.67-9.6s11.61,4.8,11.76,11H88.21C88.07,8.53,85,5.36,79.9,5.36s-8.2,2.5-8.2,6.29c0,9.94,20.3,2.49,20.3,16.22,0,5.91-5.13,9.8-12.77,9.8-8.78,0-12.48-5.14-12.72-11h3.46c.38,5.14,4,7.83,9.36,7.83C84.85,34.5,88.4,32.29,88.4,28.11Z" fill="#05003b"/>
        <path id="Path_643-7" data-name="Path 643" d="M100.21,25.76c.33,4.95,3.55,8.74,8.69,8.74a7.91,7.91,0,0,0,7.68-5.14h3.55a11.41,11.41,0,0,1-11.28,8.21c-7.73,0-12-5.95-12-12.82S101.46,12,108.8,12s11.76,5.57,11.76,12.49v1.29ZM100.3,23h16.85c-.43-4.71-3.55-7.92-8.35-7.92S100.88,18.46,100.3,23Z" fill="#05003b"/>
        <path id="Path_644-7" data-name="Path 644" d="M136.3,37.57c-7.48,0-11.52-6.05-11.52-12.77S128.82,12,136.3,12c4.47,0,7.59,2,9.27,5.09V12.56h3.26V47h-3.41V32.58C143.79,35.55,140.77,37.57,136.3,37.57Zm.7-22.51c-5.48,0-8.74,4.32-8.74,9.74s3.26,9.75,8.74,9.75,8.59-4.37,8.59-9.75S142.45,15.06,137,15.06Z" fill="#05003b"/>
        <path id="Path_645-7" data-name="Path 645" d="M156.51,27.73V12.56h3.41V27.49c0,4.42,2.35,7.1,6.72,7.1s6.72-2.68,6.72-7.1V12.56h3.41V27.73c0,5.42-3.22,9.84-10.13,9.84S156.51,33.15,156.51,27.73Z" fill="#05003b"/>
        <path id="Path_646-7" data-name="Path 646" d="M186,25.76c.34,4.95,3.55,8.74,8.69,8.74a7.9,7.9,0,0,0,7.68-5.14h3.55a11.41,11.41,0,0,1-11.28,8.21c-7.73,0-12.05-5.95-12.05-12.82S187.23,12,194.57,12s11.77,5.57,11.77,12.49c0,.52-.05,1.29-.05,1.29Zm.1-2.78h16.85c-.43-4.71-3.56-7.92-8.36-7.92s-7.94,3.4-8.51,7.94Z" fill="#05003b"/>
        <path id="Path_647-7" data-name="Path 647" d="M215.65,16.3a8.87,8.87,0,0,1,8.06-4.3c6,0,9.26,4,9.26,9.41V37h-3.4V22.07c0-4.42-2.07-7.11-6.44-7.11-4.12,0-7.34,2.59-7.34,7.49V37h-3.41V12.56h3.27Z" fill="#05003b"/>
        <path id="Path_648-7" data-name="Path 648" d="M245,37h-3.41V15.44H237V12.56h4.65v-7H245v7h5v2.88h-5Z" fill="#05003b"/>
        <circle id="Ellipse_95-7" data-name="Ellipse 95" cx="8.2" cy="8.2" r="8.2" transform="translate(41.58 0)" fill="#05003b"/>
        <circle id="Ellipse_96-7" data-name="Ellipse 96" cx="8.2" cy="8.2" r="8.2" transform="translate(0 0)" fill="#05003b"/>
        <circle id="Ellipse_97-7" data-name="Ellipse 97" cx="8.2" cy="8.2" r="8.2" transform="translate(0 19.85)" fill="#05003b"/>
        <circle id="Ellipse_98-7" data-name="Ellipse 98" cx="8.2" cy="8.2" r="8.2" transform="translate(20.79 19.85)" fill="#05003b"/>
        <circle id="Ellipse_99-7" data-name="Ellipse 99" cx="8.2" cy="8.2" r="8.2" transform="translate(20.79 0)" fill="#05003b"/>
      </g>
      <g id="Logo-8" data-name="Logo" transform="translate(0 136)">
        <path id="Path_642-8" data-name="Path 642" d="M88.4,28.11c0-10.8-20.21-2.64-20.21-16.32,0-4.89,4-9.6,11.67-9.6s11.61,4.8,11.76,11H88.21C88.07,8.53,85,5.36,79.9,5.36s-8.2,2.5-8.2,6.29c0,9.94,20.3,2.49,20.3,16.22,0,5.91-5.13,9.8-12.77,9.8-8.78,0-12.48-5.14-12.72-11h3.46c.38,5.14,4,7.83,9.36,7.83C84.85,34.5,88.4,32.29,88.4,28.11Z" fill="#05003b"/>
        <path id="Path_643-8" data-name="Path 643" d="M100.21,25.76c.33,4.95,3.55,8.74,8.69,8.74a7.91,7.91,0,0,0,7.68-5.14h3.55a11.41,11.41,0,0,1-11.28,8.21c-7.73,0-12-5.95-12-12.82S101.46,12,108.8,12s11.76,5.57,11.76,12.49v1.29ZM100.3,23h16.85c-.43-4.71-3.55-7.92-8.35-7.92S100.88,18.46,100.3,23Z" fill="#05003b"/>
        <path id="Path_644-8" data-name="Path 644" d="M136.3,37.57c-7.48,0-11.52-6.05-11.52-12.77S128.82,12,136.3,12c4.47,0,7.59,2,9.27,5.09V12.56h3.26V47h-3.41V32.58C143.79,35.55,140.77,37.57,136.3,37.57Zm.7-22.51c-5.48,0-8.74,4.32-8.74,9.74s3.26,9.75,8.74,9.75,8.59-4.37,8.59-9.75S142.45,15.06,137,15.06Z" fill="#05003b"/>
        <path id="Path_645-8" data-name="Path 645" d="M156.51,27.73V12.56h3.41V27.49c0,4.42,2.35,7.1,6.72,7.1s6.72-2.68,6.72-7.1V12.56h3.41V27.73c0,5.42-3.22,9.84-10.13,9.84S156.51,33.15,156.51,27.73Z" fill="#05003b"/>
        <path id="Path_646-8" data-name="Path 646" d="M186,25.76c.34,4.95,3.55,8.74,8.69,8.74a7.9,7.9,0,0,0,7.68-5.14h3.55a11.41,11.41,0,0,1-11.28,8.21c-7.73,0-12.05-5.95-12.05-12.82S187.23,12,194.57,12s11.77,5.57,11.77,12.49c0,.52-.05,1.29-.05,1.29Zm.1-2.78h16.85c-.43-4.71-3.56-7.92-8.36-7.92s-7.94,3.4-8.51,7.94Z" fill="#05003b"/>
        <path id="Path_647-8" data-name="Path 647" d="M215.65,16.3a8.87,8.87,0,0,1,8.06-4.3c6,0,9.26,4,9.26,9.41V37h-3.4V22.07c0-4.42-2.07-7.11-6.44-7.11-4.12,0-7.34,2.59-7.34,7.49V37h-3.41V12.56h3.27Z" fill="#05003b"/>
        <path id="Path_648-8" data-name="Path 648" d="M245,37h-3.41V15.44H237V12.56h4.65v-7H245v7h5v2.88h-5Z" fill="#05003b"/>
        <circle id="Ellipse_95-8" data-name="Ellipse 95" cx="8.2" cy="8.2" r="8.2" transform="translate(41.58 0)" fill="#05003b"/>
        <circle id="Ellipse_96-8" data-name="Ellipse 96" cx="8.2" cy="8.2" r="8.2" transform="translate(0 0)" fill="#05003b"/>
        <circle id="Ellipse_97-8" data-name="Ellipse 97" cx="8.2" cy="8.2" r="8.2" transform="translate(0 19.85)" fill="#05003b"/>
        <circle id="Ellipse_98-8" data-name="Ellipse 98" cx="8.2" cy="8.2" r="8.2" transform="translate(20.79 19.85)" fill="#05003b"/>
        <circle id="Ellipse_99-8" data-name="Ellipse 99" cx="8.2" cy="8.2" r="8.2" transform="translate(20.79 0)" fill="#05003b"/>
      </g>
    </g>
    <g id="Layer_2-3" data-name="Layer 2" transform="translate(15467 -3934)">
      <g id="Logo-9" data-name="Logo" transform="translate(0 136)">
        <path id="Path_642-9" data-name="Path 642" d="M88.4,28.11c0-10.8-20.21-2.64-20.21-16.32,0-4.89,4-9.6,11.67-9.6s11.61,4.8,11.76,11H88.21C88.07,8.53,85,5.36,79.9,5.36s-8.2,2.5-8.2,6.29c0,9.94,20.3,2.49,20.3,16.22,0,5.91-5.13,9.8-12.77,9.8-8.78,0-12.48-5.14-12.72-11h3.46c.38,5.14,4,7.83,9.36,7.83C84.85,34.5,88.4,32.29,88.4,28.11Z" fill="#05003b"/>
        <path id="Path_643-9" data-name="Path 643" d="M100.21,25.76c.33,4.95,3.55,8.74,8.69,8.74a7.91,7.91,0,0,0,7.68-5.14h3.55a11.41,11.41,0,0,1-11.28,8.21c-7.73,0-12-5.95-12-12.82S101.46,12,108.8,12s11.76,5.57,11.76,12.49v1.29ZM100.3,23h16.85c-.43-4.71-3.55-7.92-8.35-7.92S100.88,18.46,100.3,23Z" fill="#05003b"/>
        <path id="Path_644-9" data-name="Path 644" d="M136.3,37.57c-7.48,0-11.52-6.05-11.52-12.77S128.82,12,136.3,12c4.47,0,7.59,2,9.27,5.09V12.56h3.26V47h-3.41V32.58C143.79,35.55,140.77,37.57,136.3,37.57Zm.7-22.51c-5.48,0-8.74,4.32-8.74,9.74s3.26,9.75,8.74,9.75,8.59-4.37,8.59-9.75S142.45,15.06,137,15.06Z" fill="#05003b"/>
        <path id="Path_645-9" data-name="Path 645" d="M156.51,27.73V12.56h3.41V27.49c0,4.42,2.35,7.1,6.72,7.1s6.72-2.68,6.72-7.1V12.56h3.41V27.73c0,5.42-3.22,9.84-10.13,9.84S156.51,33.15,156.51,27.73Z" fill="#05003b"/>
        <path id="Path_646-9" data-name="Path 646" d="M186,25.76c.34,4.95,3.55,8.74,8.69,8.74a7.9,7.9,0,0,0,7.68-5.14h3.55a11.41,11.41,0,0,1-11.28,8.21c-7.73,0-12.05-5.95-12.05-12.82S187.23,12,194.57,12s11.77,5.57,11.77,12.49c0,.52-.05,1.29-.05,1.29Zm.1-2.78h16.85c-.43-4.71-3.56-7.92-8.36-7.92s-7.94,3.4-8.51,7.94Z" fill="#05003b"/>
        <path id="Path_647-9" data-name="Path 647" d="M215.65,16.3a8.87,8.87,0,0,1,8.06-4.3c6,0,9.26,4,9.26,9.41V37h-3.4V22.07c0-4.42-2.07-7.11-6.44-7.11-4.12,0-7.34,2.59-7.34,7.49V37h-3.41V12.56h3.27Z" fill="#05003b"/>
        <path id="Path_648-9" data-name="Path 648" d="M245,37h-3.41V15.44H237V12.56h4.65v-7H245v7h5v2.88h-5Z" fill="#05003b"/>
        <circle id="Ellipse_95-9" data-name="Ellipse 95" cx="8.2" cy="8.2" r="8.2" transform="translate(41.58 0)" fill="#05003b"/>
        <circle id="Ellipse_96-9" data-name="Ellipse 96" cx="8.2" cy="8.2" r="8.2" transform="translate(0 0)" fill="#05003b"/>
        <circle id="Ellipse_97-9" data-name="Ellipse 97" cx="8.2" cy="8.2" r="8.2" transform="translate(0 19.85)" fill="#05003b"/>
        <circle id="Ellipse_98-9" data-name="Ellipse 98" cx="8.2" cy="8.2" r="8.2" transform="translate(20.79 19.85)" fill="#05003b"/>
        <circle id="Ellipse_99-9" data-name="Ellipse 99" cx="8.2" cy="8.2" r="8.2" transform="translate(20.79 0)" fill="#05003b"/>
      </g>
      <g id="Logo-10" data-name="Logo" transform="translate(0 136)">
        <path id="Path_642-10" data-name="Path 642" d="M88.4,28.11c0-10.8-20.21-2.64-20.21-16.32,0-4.89,4-9.6,11.67-9.6s11.61,4.8,11.76,11H88.21C88.07,8.53,85,5.36,79.9,5.36s-8.2,2.5-8.2,6.29c0,9.94,20.3,2.49,20.3,16.22,0,5.91-5.13,9.8-12.77,9.8-8.78,0-12.48-5.14-12.72-11h3.46c.38,5.14,4,7.83,9.36,7.83C84.85,34.5,88.4,32.29,88.4,28.11Z" fill="#05003b"/>
        <path id="Path_643-10" data-name="Path 643" d="M100.21,25.76c.33,4.95,3.55,8.74,8.69,8.74a7.91,7.91,0,0,0,7.68-5.14h3.55a11.41,11.41,0,0,1-11.28,8.21c-7.73,0-12-5.95-12-12.82S101.46,12,108.8,12s11.76,5.57,11.76,12.49v1.29ZM100.3,23h16.85c-.43-4.71-3.55-7.92-8.35-7.92S100.88,18.46,100.3,23Z" fill="#05003b"/>
        <path id="Path_644-10" data-name="Path 644" d="M136.3,37.57c-7.48,0-11.52-6.05-11.52-12.77S128.82,12,136.3,12c4.47,0,7.59,2,9.27,5.09V12.56h3.26V47h-3.41V32.58C143.79,35.55,140.77,37.57,136.3,37.57Zm.7-22.51c-5.48,0-8.74,4.32-8.74,9.74s3.26,9.75,8.74,9.75,8.59-4.37,8.59-9.75S142.45,15.06,137,15.06Z" fill="#05003b"/>
        <path id="Path_645-10" data-name="Path 645" d="M156.51,27.73V12.56h3.41V27.49c0,4.42,2.35,7.1,6.72,7.1s6.72-2.68,6.72-7.1V12.56h3.41V27.73c0,5.42-3.22,9.84-10.13,9.84S156.51,33.15,156.51,27.73Z" fill="#05003b"/>
        <path id="Path_646-10" data-name="Path 646" d="M186,25.76c.34,4.95,3.55,8.74,8.69,8.74a7.9,7.9,0,0,0,7.68-5.14h3.55a11.41,11.41,0,0,1-11.28,8.21c-7.73,0-12.05-5.95-12.05-12.82S187.23,12,194.57,12s11.77,5.57,11.77,12.49c0,.52-.05,1.29-.05,1.29Zm.1-2.78h16.85c-.43-4.71-3.56-7.92-8.36-7.92s-7.94,3.4-8.51,7.94Z" fill="#05003b"/>
        <path id="Path_647-10" data-name="Path 647" d="M215.65,16.3a8.87,8.87,0,0,1,8.06-4.3c6,0,9.26,4,9.26,9.41V37h-3.4V22.07c0-4.42-2.07-7.11-6.44-7.11-4.12,0-7.34,2.59-7.34,7.49V37h-3.41V12.56h3.27Z" fill="#05003b"/>
        <path id="Path_648-10" data-name="Path 648" d="M245,37h-3.41V15.44H237V12.56h4.65v-7H245v7h5v2.88h-5Z" fill="#05003b"/>
        <circle id="Ellipse_95-10" data-name="Ellipse 95" cx="8.2" cy="8.2" r="8.2" transform="translate(41.58 0)" fill="#05003b"/>
        <circle id="Ellipse_96-10" data-name="Ellipse 96" cx="8.2" cy="8.2" r="8.2" transform="translate(0 0)" fill="#05003b"/>
        <circle id="Ellipse_97-10" data-name="Ellipse 97" cx="8.2" cy="8.2" r="8.2" transform="translate(0 19.85)" fill="#05003b"/>
        <circle id="Ellipse_98-10" data-name="Ellipse 98" cx="8.2" cy="8.2" r="8.2" transform="translate(20.79 19.85)" fill="#05003b"/>
        <circle id="Ellipse_99-10" data-name="Ellipse 99" cx="8.2" cy="8.2" r="8.2" transform="translate(20.79 0)" fill="#05003b"/>
      </g>
      <g id="Logo-11" data-name="Logo" transform="translate(0 136)">
        <path id="Path_642-11" data-name="Path 642" d="M88.4,28.11c0-10.8-20.21-2.64-20.21-16.32,0-4.89,4-9.6,11.67-9.6s11.61,4.8,11.76,11H88.21C88.07,8.53,85,5.36,79.9,5.36s-8.2,2.5-8.2,6.29c0,9.94,20.3,2.49,20.3,16.22,0,5.91-5.13,9.8-12.77,9.8-8.78,0-12.48-5.14-12.72-11h3.46c.38,5.14,4,7.83,9.36,7.83C84.85,34.5,88.4,32.29,88.4,28.11Z" fill="#05003b"/>
        <path id="Path_643-11" data-name="Path 643" d="M100.21,25.76c.33,4.95,3.55,8.74,8.69,8.74a7.91,7.91,0,0,0,7.68-5.14h3.55a11.41,11.41,0,0,1-11.28,8.21c-7.73,0-12-5.95-12-12.82S101.46,12,108.8,12s11.76,5.57,11.76,12.49v1.29ZM100.3,23h16.85c-.43-4.71-3.55-7.92-8.35-7.92S100.88,18.46,100.3,23Z" fill="#05003b"/>
        <path id="Path_644-11" data-name="Path 644" d="M136.3,37.57c-7.48,0-11.52-6.05-11.52-12.77S128.82,12,136.3,12c4.47,0,7.59,2,9.27,5.09V12.56h3.26V47h-3.41V32.58C143.79,35.55,140.77,37.57,136.3,37.57Zm.7-22.51c-5.48,0-8.74,4.32-8.74,9.74s3.26,9.75,8.74,9.75,8.59-4.37,8.59-9.75S142.45,15.06,137,15.06Z" fill="#05003b"/>
        <path id="Path_645-11" data-name="Path 645" d="M156.51,27.73V12.56h3.41V27.49c0,4.42,2.35,7.1,6.72,7.1s6.72-2.68,6.72-7.1V12.56h3.41V27.73c0,5.42-3.22,9.84-10.13,9.84S156.51,33.15,156.51,27.73Z" fill="#05003b"/>
        <path id="Path_646-11" data-name="Path 646" d="M186,25.76c.34,4.95,3.55,8.74,8.69,8.74a7.9,7.9,0,0,0,7.68-5.14h3.55a11.41,11.41,0,0,1-11.28,8.21c-7.73,0-12.05-5.95-12.05-12.82S187.23,12,194.57,12s11.77,5.57,11.77,12.49c0,.52-.05,1.29-.05,1.29Zm.1-2.78h16.85c-.43-4.71-3.56-7.92-8.36-7.92s-7.94,3.4-8.51,7.94Z" fill="#05003b"/>
        <path id="Path_647-11" data-name="Path 647" d="M215.65,16.3a8.87,8.87,0,0,1,8.06-4.3c6,0,9.26,4,9.26,9.41V37h-3.4V22.07c0-4.42-2.07-7.11-6.44-7.11-4.12,0-7.34,2.59-7.34,7.49V37h-3.41V12.56h3.27Z" fill="#05003b"/>
        <path id="Path_648-11" data-name="Path 648" d="M245,37h-3.41V15.44H237V12.56h4.65v-7H245v7h5v2.88h-5Z" fill="#05003b"/>
        <circle id="Ellipse_95-11" data-name="Ellipse 95" cx="8.2" cy="8.2" r="8.2" transform="translate(41.58 0)" fill="#05003b"/>
        <circle id="Ellipse_96-11" data-name="Ellipse 96" cx="8.2" cy="8.2" r="8.2" transform="translate(0 0)" fill="#05003b"/>
        <circle id="Ellipse_97-11" data-name="Ellipse 97" cx="8.2" cy="8.2" r="8.2" transform="translate(0 19.85)" fill="#05003b"/>
        <circle id="Ellipse_98-11" data-name="Ellipse 98" cx="8.2" cy="8.2" r="8.2" transform="translate(20.79 19.85)" fill="#05003b"/>
        <circle id="Ellipse_99-11" data-name="Ellipse 99" cx="8.2" cy="8.2" r="8.2" transform="translate(20.79 0)" fill="#05003b"/>
      </g>
      <g id="Logo-12" data-name="Logo" transform="translate(0 136)">
        <path id="Path_642-12" data-name="Path 642" d="M88.4,28.11c0-10.8-20.21-2.64-20.21-16.32,0-4.89,4-9.6,11.67-9.6s11.61,4.8,11.76,11H88.21C88.07,8.53,85,5.36,79.9,5.36s-8.2,2.5-8.2,6.29c0,9.94,20.3,2.49,20.3,16.22,0,5.91-5.13,9.8-12.77,9.8-8.78,0-12.48-5.14-12.72-11h3.46c.38,5.14,4,7.83,9.36,7.83C84.85,34.5,88.4,32.29,88.4,28.11Z" fill="#05003b"/>
        <path id="Path_643-12" data-name="Path 643" d="M100.21,25.76c.33,4.95,3.55,8.74,8.69,8.74a7.91,7.91,0,0,0,7.68-5.14h3.55a11.41,11.41,0,0,1-11.28,8.21c-7.73,0-12-5.95-12-12.82S101.46,12,108.8,12s11.76,5.57,11.76,12.49v1.29ZM100.3,23h16.85c-.43-4.71-3.55-7.92-8.35-7.92S100.88,18.46,100.3,23Z" fill="#05003b"/>
        <path id="Path_644-12" data-name="Path 644" d="M136.3,37.57c-7.48,0-11.52-6.05-11.52-12.77S128.82,12,136.3,12c4.47,0,7.59,2,9.27,5.09V12.56h3.26V47h-3.41V32.58C143.79,35.55,140.77,37.57,136.3,37.57Zm.7-22.51c-5.48,0-8.74,4.32-8.74,9.74s3.26,9.75,8.74,9.75,8.59-4.37,8.59-9.75S142.45,15.06,137,15.06Z" fill="#05003b"/>
        <path id="Path_645-12" data-name="Path 645" d="M156.51,27.73V12.56h3.41V27.49c0,4.42,2.35,7.1,6.72,7.1s6.72-2.68,6.72-7.1V12.56h3.41V27.73c0,5.42-3.22,9.84-10.13,9.84S156.51,33.15,156.51,27.73Z" fill="#05003b"/>
        <path id="Path_646-12" data-name="Path 646" d="M186,25.76c.34,4.95,3.55,8.74,8.69,8.74a7.9,7.9,0,0,0,7.68-5.14h3.55a11.41,11.41,0,0,1-11.28,8.21c-7.73,0-12.05-5.95-12.05-12.82S187.23,12,194.57,12s11.77,5.57,11.77,12.49c0,.52-.05,1.29-.05,1.29Zm.1-2.78h16.85c-.43-4.71-3.56-7.92-8.36-7.92s-7.94,3.4-8.51,7.94Z" fill="#05003b"/>
        <path id="Path_647-12" data-name="Path 647" d="M215.65,16.3a8.87,8.87,0,0,1,8.06-4.3c6,0,9.26,4,9.26,9.41V37h-3.4V22.07c0-4.42-2.07-7.11-6.44-7.11-4.12,0-7.34,2.59-7.34,7.49V37h-3.41V12.56h3.27Z" fill="#05003b"/>
        <path id="Path_648-12" data-name="Path 648" d="M245,37h-3.41V15.44H237V12.56h4.65v-7H245v7h5v2.88h-5Z" fill="#05003b"/>
        <circle id="Ellipse_95-12" data-name="Ellipse 95" cx="8.2" cy="8.2" r="8.2" transform="translate(41.58 0)" fill="#05003b"/>
        <circle id="Ellipse_96-12" data-name="Ellipse 96" cx="8.2" cy="8.2" r="8.2" transform="translate(0 0)" fill="#05003b"/>
        <circle id="Ellipse_97-12" data-name="Ellipse 97" cx="8.2" cy="8.2" r="8.2" transform="translate(0 19.85)" fill="#05003b"/>
        <circle id="Ellipse_98-12" data-name="Ellipse 98" cx="8.2" cy="8.2" r="8.2" transform="translate(20.79 19.85)" fill="#05003b"/>
        <circle id="Ellipse_99-12" data-name="Ellipse 99" cx="8.2" cy="8.2" r="8.2" transform="translate(20.79 0)" fill="#05003b"/>
      </g>
    </g>
    <g id="Layer_2-4" data-name="Layer 2" transform="translate(15467 -3934)">
      <g id="Logo-13" data-name="Logo" transform="translate(0 136)">
        <path id="Path_642-13" data-name="Path 642" d="M88.4,28.11c0-10.8-20.21-2.64-20.21-16.32,0-4.89,4-9.6,11.67-9.6s11.61,4.8,11.76,11H88.21C88.07,8.53,85,5.36,79.9,5.36s-8.2,2.5-8.2,6.29c0,9.94,20.3,2.49,20.3,16.22,0,5.91-5.13,9.8-12.77,9.8-8.78,0-12.48-5.14-12.72-11h3.46c.38,5.14,4,7.83,9.36,7.83C84.85,34.5,88.4,32.29,88.4,28.11Z" fill="#05003b"/>
        <path id="Path_643-13" data-name="Path 643" d="M100.21,25.76c.33,4.95,3.55,8.74,8.69,8.74a7.91,7.91,0,0,0,7.68-5.14h3.55a11.41,11.41,0,0,1-11.28,8.21c-7.73,0-12-5.95-12-12.82S101.46,12,108.8,12s11.76,5.57,11.76,12.49v1.29ZM100.3,23h16.85c-.43-4.71-3.55-7.92-8.35-7.92S100.88,18.46,100.3,23Z" fill="#05003b"/>
        <path id="Path_644-13" data-name="Path 644" d="M136.3,37.57c-7.48,0-11.52-6.05-11.52-12.77S128.82,12,136.3,12c4.47,0,7.59,2,9.27,5.09V12.56h3.26V47h-3.41V32.58C143.79,35.55,140.77,37.57,136.3,37.57Zm.7-22.51c-5.48,0-8.74,4.32-8.74,9.74s3.26,9.75,8.74,9.75,8.59-4.37,8.59-9.75S142.45,15.06,137,15.06Z" fill="#05003b"/>
        <path id="Path_645-13" data-name="Path 645" d="M156.51,27.73V12.56h3.41V27.49c0,4.42,2.35,7.1,6.72,7.1s6.72-2.68,6.72-7.1V12.56h3.41V27.73c0,5.42-3.22,9.84-10.13,9.84S156.51,33.15,156.51,27.73Z" fill="#05003b"/>
        <path id="Path_646-13" data-name="Path 646" d="M186,25.76c.34,4.95,3.55,8.74,8.69,8.74a7.9,7.9,0,0,0,7.68-5.14h3.55a11.41,11.41,0,0,1-11.28,8.21c-7.73,0-12.05-5.95-12.05-12.82S187.23,12,194.57,12s11.77,5.57,11.77,12.49c0,.52-.05,1.29-.05,1.29Zm.1-2.78h16.85c-.43-4.71-3.56-7.92-8.36-7.92s-7.94,3.4-8.51,7.94Z" fill="#05003b"/>
        <path id="Path_647-13" data-name="Path 647" d="M215.65,16.3a8.87,8.87,0,0,1,8.06-4.3c6,0,9.26,4,9.26,9.41V37h-3.4V22.07c0-4.42-2.07-7.11-6.44-7.11-4.12,0-7.34,2.59-7.34,7.49V37h-3.41V12.56h3.27Z" fill="#05003b"/>
        <path id="Path_648-13" data-name="Path 648" d="M245,37h-3.41V15.44H237V12.56h4.65v-7H245v7h5v2.88h-5Z" fill="#05003b"/>
        <circle id="Ellipse_95-13" data-name="Ellipse 95" cx="8.2" cy="8.2" r="8.2" transform="translate(41.58 0)" fill="#05003b"/>
        <circle id="Ellipse_96-13" data-name="Ellipse 96" cx="8.2" cy="8.2" r="8.2" transform="translate(0 0)" fill="#05003b"/>
        <circle id="Ellipse_97-13" data-name="Ellipse 97" cx="8.2" cy="8.2" r="8.2" transform="translate(0 19.85)" fill="#05003b"/>
        <circle id="Ellipse_98-13" data-name="Ellipse 98" cx="8.2" cy="8.2" r="8.2" transform="translate(20.79 19.85)" fill="#05003b"/>
        <circle id="Ellipse_99-13" data-name="Ellipse 99" cx="8.2" cy="8.2" r="8.2" transform="translate(20.79 0)" fill="#05003b"/>
      </g>
      <g id="Logo-14" data-name="Logo" transform="translate(0 136)">
        <path id="Path_642-14" data-name="Path 642" d="M88.4,28.11c0-10.8-20.21-2.64-20.21-16.32,0-4.89,4-9.6,11.67-9.6s11.61,4.8,11.76,11H88.21C88.07,8.53,85,5.36,79.9,5.36s-8.2,2.5-8.2,6.29c0,9.94,20.3,2.49,20.3,16.22,0,5.91-5.13,9.8-12.77,9.8-8.78,0-12.48-5.14-12.72-11h3.46c.38,5.14,4,7.83,9.36,7.83C84.85,34.5,88.4,32.29,88.4,28.11Z" fill="#05003b"/>
        <path id="Path_643-14" data-name="Path 643" d="M100.21,25.76c.33,4.95,3.55,8.74,8.69,8.74a7.91,7.91,0,0,0,7.68-5.14h3.55a11.41,11.41,0,0,1-11.28,8.21c-7.73,0-12-5.95-12-12.82S101.46,12,108.8,12s11.76,5.57,11.76,12.49v1.29ZM100.3,23h16.85c-.43-4.71-3.55-7.92-8.35-7.92S100.88,18.46,100.3,23Z" fill="#05003b"/>
        <path id="Path_644-14" data-name="Path 644" d="M136.3,37.57c-7.48,0-11.52-6.05-11.52-12.77S128.82,12,136.3,12c4.47,0,7.59,2,9.27,5.09V12.56h3.26V47h-3.41V32.58C143.79,35.55,140.77,37.57,136.3,37.57Zm.7-22.51c-5.48,0-8.74,4.32-8.74,9.74s3.26,9.75,8.74,9.75,8.59-4.37,8.59-9.75S142.45,15.06,137,15.06Z" fill="#05003b"/>
        <path id="Path_645-14" data-name="Path 645" d="M156.51,27.73V12.56h3.41V27.49c0,4.42,2.35,7.1,6.72,7.1s6.72-2.68,6.72-7.1V12.56h3.41V27.73c0,5.42-3.22,9.84-10.13,9.84S156.51,33.15,156.51,27.73Z" fill="#05003b"/>
        <path id="Path_646-14" data-name="Path 646" d="M186,25.76c.34,4.95,3.55,8.74,8.69,8.74a7.9,7.9,0,0,0,7.68-5.14h3.55a11.41,11.41,0,0,1-11.28,8.21c-7.73,0-12.05-5.95-12.05-12.82S187.23,12,194.57,12s11.77,5.57,11.77,12.49c0,.52-.05,1.29-.05,1.29Zm.1-2.78h16.85c-.43-4.71-3.56-7.92-8.36-7.92s-7.94,3.4-8.51,7.94Z" fill="#05003b"/>
        <path id="Path_647-14" data-name="Path 647" d="M215.65,16.3a8.87,8.87,0,0,1,8.06-4.3c6,0,9.26,4,9.26,9.41V37h-3.4V22.07c0-4.42-2.07-7.11-6.44-7.11-4.12,0-7.34,2.59-7.34,7.49V37h-3.41V12.56h3.27Z" fill="#05003b"/>
        <path id="Path_648-14" data-name="Path 648" d="M245,37h-3.41V15.44H237V12.56h4.65v-7H245v7h5v2.88h-5Z" fill="#05003b"/>
        <circle id="Ellipse_95-14" data-name="Ellipse 95" cx="8.2" cy="8.2" r="8.2" transform="translate(41.58 0)" fill="#05003b"/>
        <circle id="Ellipse_96-14" data-name="Ellipse 96" cx="8.2" cy="8.2" r="8.2" transform="translate(0 0)" fill="#05003b"/>
        <circle id="Ellipse_97-14" data-name="Ellipse 97" cx="8.2" cy="8.2" r="8.2" transform="translate(0 19.85)" fill="#05003b"/>
        <circle id="Ellipse_98-14" data-name="Ellipse 98" cx="8.2" cy="8.2" r="8.2" transform="translate(20.79 19.85)" fill="#05003b"/>
        <circle id="Ellipse_99-14" data-name="Ellipse 99" cx="8.2" cy="8.2" r="8.2" transform="translate(20.79 0)" fill="#05003b"/>
      </g>
      <g id="Logo-15" data-name="Logo" transform="translate(0 136)">
        <path id="Path_642-15" data-name="Path 642" d="M88.4,28.11c0-10.8-20.21-2.64-20.21-16.32,0-4.89,4-9.6,11.67-9.6s11.61,4.8,11.76,11H88.21C88.07,8.53,85,5.36,79.9,5.36s-8.2,2.5-8.2,6.29c0,9.94,20.3,2.49,20.3,16.22,0,5.91-5.13,9.8-12.77,9.8-8.78,0-12.48-5.14-12.72-11h3.46c.38,5.14,4,7.83,9.36,7.83C84.85,34.5,88.4,32.29,88.4,28.11Z" fill="#05003b"/>
        <path id="Path_643-15" data-name="Path 643" d="M100.21,25.76c.33,4.95,3.55,8.74,8.69,8.74a7.91,7.91,0,0,0,7.68-5.14h3.55a11.41,11.41,0,0,1-11.28,8.21c-7.73,0-12-5.95-12-12.82S101.46,12,108.8,12s11.76,5.57,11.76,12.49v1.29ZM100.3,23h16.85c-.43-4.71-3.55-7.92-8.35-7.92S100.88,18.46,100.3,23Z" fill="#05003b"/>
        <path id="Path_644-15" data-name="Path 644" d="M136.3,37.57c-7.48,0-11.52-6.05-11.52-12.77S128.82,12,136.3,12c4.47,0,7.59,2,9.27,5.09V12.56h3.26V47h-3.41V32.58C143.79,35.55,140.77,37.57,136.3,37.57Zm.7-22.51c-5.48,0-8.74,4.32-8.74,9.74s3.26,9.75,8.74,9.75,8.59-4.37,8.59-9.75S142.45,15.06,137,15.06Z" fill="#05003b"/>
        <path id="Path_645-15" data-name="Path 645" d="M156.51,27.73V12.56h3.41V27.49c0,4.42,2.35,7.1,6.72,7.1s6.72-2.68,6.72-7.1V12.56h3.41V27.73c0,5.42-3.22,9.84-10.13,9.84S156.51,33.15,156.51,27.73Z" fill="#05003b"/>
        <path id="Path_646-15" data-name="Path 646" d="M186,25.76c.34,4.95,3.55,8.74,8.69,8.74a7.9,7.9,0,0,0,7.68-5.14h3.55a11.41,11.41,0,0,1-11.28,8.21c-7.73,0-12.05-5.95-12.05-12.82S187.23,12,194.57,12s11.77,5.57,11.77,12.49c0,.52-.05,1.29-.05,1.29Zm.1-2.78h16.85c-.43-4.71-3.56-7.92-8.36-7.92s-7.94,3.4-8.51,7.94Z" fill="#05003b"/>
        <path id="Path_647-15" data-name="Path 647" d="M215.65,16.3a8.87,8.87,0,0,1,8.06-4.3c6,0,9.26,4,9.26,9.41V37h-3.4V22.07c0-4.42-2.07-7.11-6.44-7.11-4.12,0-7.34,2.59-7.34,7.49V37h-3.41V12.56h3.27Z" fill="#05003b"/>
        <path id="Path_648-15" data-name="Path 648" d="M245,37h-3.41V15.44H237V12.56h4.65v-7H245v7h5v2.88h-5Z" fill="#05003b"/>
        <circle id="Ellipse_95-15" data-name="Ellipse 95" cx="8.2" cy="8.2" r="8.2" transform="translate(41.58 0)" fill="#05003b"/>
        <circle id="Ellipse_96-15" data-name="Ellipse 96" cx="8.2" cy="8.2" r="8.2" transform="translate(0 0)" fill="#05003b"/>
        <circle id="Ellipse_97-15" data-name="Ellipse 97" cx="8.2" cy="8.2" r="8.2" transform="translate(0 19.85)" fill="#05003b"/>
        <circle id="Ellipse_98-15" data-name="Ellipse 98" cx="8.2" cy="8.2" r="8.2" transform="translate(20.79 19.85)" fill="#05003b"/>
        <circle id="Ellipse_99-15" data-name="Ellipse 99" cx="8.2" cy="8.2" r="8.2" transform="translate(20.79 0)" fill="#05003b"/>
      </g>
      <g id="Logo-16" data-name="Logo" transform="translate(0 136)">
        <path id="Path_642-16" data-name="Path 642" d="M88.4,28.11c0-10.8-20.21-2.64-20.21-16.32,0-4.89,4-9.6,11.67-9.6s11.61,4.8,11.76,11H88.21C88.07,8.53,85,5.36,79.9,5.36s-8.2,2.5-8.2,6.29c0,9.94,20.3,2.49,20.3,16.22,0,5.91-5.13,9.8-12.77,9.8-8.78,0-12.48-5.14-12.72-11h3.46c.38,5.14,4,7.83,9.36,7.83C84.85,34.5,88.4,32.29,88.4,28.11Z" fill="#05003b"/>
        <path id="Path_643-16" data-name="Path 643" d="M100.21,25.76c.33,4.95,3.55,8.74,8.69,8.74a7.91,7.91,0,0,0,7.68-5.14h3.55a11.41,11.41,0,0,1-11.28,8.21c-7.73,0-12-5.95-12-12.82S101.46,12,108.8,12s11.76,5.57,11.76,12.49v1.29ZM100.3,23h16.85c-.43-4.71-3.55-7.92-8.35-7.92S100.88,18.46,100.3,23Z" fill="#05003b"/>
        <path id="Path_644-16" data-name="Path 644" d="M136.3,37.57c-7.48,0-11.52-6.05-11.52-12.77S128.82,12,136.3,12c4.47,0,7.59,2,9.27,5.09V12.56h3.26V47h-3.41V32.58C143.79,35.55,140.77,37.57,136.3,37.57Zm.7-22.51c-5.48,0-8.74,4.32-8.74,9.74s3.26,9.75,8.74,9.75,8.59-4.37,8.59-9.75S142.45,15.06,137,15.06Z" fill="#05003b"/>
        <path id="Path_645-16" data-name="Path 645" d="M156.51,27.73V12.56h3.41V27.49c0,4.42,2.35,7.1,6.72,7.1s6.72-2.68,6.72-7.1V12.56h3.41V27.73c0,5.42-3.22,9.84-10.13,9.84S156.51,33.15,156.51,27.73Z" fill="#05003b"/>
        <path id="Path_646-16" data-name="Path 646" d="M186,25.76c.34,4.95,3.55,8.74,8.69,8.74a7.9,7.9,0,0,0,7.68-5.14h3.55a11.41,11.41,0,0,1-11.28,8.21c-7.73,0-12.05-5.95-12.05-12.82S187.23,12,194.57,12s11.77,5.57,11.77,12.49c0,.52-.05,1.29-.05,1.29Zm.1-2.78h16.85c-.43-4.71-3.56-7.92-8.36-7.92s-7.94,3.4-8.51,7.94Z" fill="#05003b"/>
        <path id="Path_647-16" data-name="Path 647" d="M215.65,16.3a8.87,8.87,0,0,1,8.06-4.3c6,0,9.26,4,9.26,9.41V37h-3.4V22.07c0-4.42-2.07-7.11-6.44-7.11-4.12,0-7.34,2.59-7.34,7.49V37h-3.41V12.56h3.27Z" fill="#05003b"/>
        <path id="Path_648-16" data-name="Path 648" d="M245,37h-3.41V15.44H237V12.56h4.65v-7H245v7h5v2.88h-5Z" fill="#05003b"/>
        <circle id="Ellipse_95-16" data-name="Ellipse 95" cx="8.2" cy="8.2" r="8.2" transform="translate(41.58 0)" fill="#05003b"/>
        <circle id="Ellipse_96-16" data-name="Ellipse 96" cx="8.2" cy="8.2" r="8.2" transform="translate(0 0)" fill="#05003b"/>
        <circle id="Ellipse_97-16" data-name="Ellipse 97" cx="8.2" cy="8.2" r="8.2" transform="translate(0 19.85)" fill="#05003b"/>
        <circle id="Ellipse_98-16" data-name="Ellipse 98" cx="8.2" cy="8.2" r="8.2" transform="translate(20.79 19.85)" fill="#05003b"/>
        <circle id="Ellipse_99-16" data-name="Ellipse 99" cx="8.2" cy="8.2" r="8.2" transform="translate(20.79 0)" fill="#05003b"/>
      </g>
    </g>
    <g id="Layer_2-5" data-name="Layer 2" transform="translate(15467 -3934)">
      <g id="Logo-17" data-name="Logo" transform="translate(0 136)">
        <path id="Path_642-17" data-name="Path 642" d="M88.4,28.11c0-10.8-20.21-2.64-20.21-16.32,0-4.89,4-9.6,11.67-9.6s11.61,4.8,11.76,11H88.21C88.07,8.53,85,5.36,79.9,5.36s-8.2,2.5-8.2,6.29c0,9.94,20.3,2.49,20.3,16.22,0,5.91-5.13,9.8-12.77,9.8-8.78,0-12.48-5.14-12.72-11h3.46c.38,5.14,4,7.83,9.36,7.83C84.85,34.5,88.4,32.29,88.4,28.11Z" fill="#05003b"/>
        <path id="Path_643-17" data-name="Path 643" d="M100.21,25.76c.33,4.95,3.55,8.74,8.69,8.74a7.91,7.91,0,0,0,7.68-5.14h3.55a11.41,11.41,0,0,1-11.28,8.21c-7.73,0-12-5.95-12-12.82S101.46,12,108.8,12s11.76,5.57,11.76,12.49v1.29ZM100.3,23h16.85c-.43-4.71-3.55-7.92-8.35-7.92S100.88,18.46,100.3,23Z" fill="#05003b"/>
        <path id="Path_644-17" data-name="Path 644" d="M136.3,37.57c-7.48,0-11.52-6.05-11.52-12.77S128.82,12,136.3,12c4.47,0,7.59,2,9.27,5.09V12.56h3.26V47h-3.41V32.58C143.79,35.55,140.77,37.57,136.3,37.57Zm.7-22.51c-5.48,0-8.74,4.32-8.74,9.74s3.26,9.75,8.74,9.75,8.59-4.37,8.59-9.75S142.45,15.06,137,15.06Z" fill="#05003b"/>
        <path id="Path_645-17" data-name="Path 645" d="M156.51,27.73V12.56h3.41V27.49c0,4.42,2.35,7.1,6.72,7.1s6.72-2.68,6.72-7.1V12.56h3.41V27.73c0,5.42-3.22,9.84-10.13,9.84S156.51,33.15,156.51,27.73Z" fill="#05003b"/>
        <path id="Path_646-17" data-name="Path 646" d="M186,25.76c.34,4.95,3.55,8.74,8.69,8.74a7.9,7.9,0,0,0,7.68-5.14h3.55a11.41,11.41,0,0,1-11.28,8.21c-7.73,0-12.05-5.95-12.05-12.82S187.23,12,194.57,12s11.77,5.57,11.77,12.49c0,.52-.05,1.29-.05,1.29Zm.1-2.78h16.85c-.43-4.71-3.56-7.92-8.36-7.92s-7.94,3.4-8.51,7.94Z" fill="#05003b"/>
        <path id="Path_647-17" data-name="Path 647" d="M215.65,16.3a8.87,8.87,0,0,1,8.06-4.3c6,0,9.26,4,9.26,9.41V37h-3.4V22.07c0-4.42-2.07-7.11-6.44-7.11-4.12,0-7.34,2.59-7.34,7.49V37h-3.41V12.56h3.27Z" fill="#05003b"/>
        <path id="Path_648-17" data-name="Path 648" d="M245,37h-3.41V15.44H237V12.56h4.65v-7H245v7h5v2.88h-5Z" fill="#05003b"/>
        <circle id="Ellipse_95-17" data-name="Ellipse 95" cx="8.2" cy="8.2" r="8.2" transform="translate(41.58 0)" fill="#05003b"/>
        <circle id="Ellipse_96-17" data-name="Ellipse 96" cx="8.2" cy="8.2" r="8.2" transform="translate(0 0)" fill="#05003b"/>
        <circle id="Ellipse_97-17" data-name="Ellipse 97" cx="8.2" cy="8.2" r="8.2" transform="translate(0 19.85)" fill="#05003b"/>
        <circle id="Ellipse_98-17" data-name="Ellipse 98" cx="8.2" cy="8.2" r="8.2" transform="translate(20.79 19.85)" fill="#05003b"/>
        <circle id="Ellipse_99-17" data-name="Ellipse 99" cx="8.2" cy="8.2" r="8.2" transform="translate(20.79 0)" fill="#05003b"/>
      </g>
      <g id="Logo-18" data-name="Logo" transform="translate(0 136)">
        <path id="Path_642-18" data-name="Path 642" d="M88.4,28.11c0-10.8-20.21-2.64-20.21-16.32,0-4.89,4-9.6,11.67-9.6s11.61,4.8,11.76,11H88.21C88.07,8.53,85,5.36,79.9,5.36s-8.2,2.5-8.2,6.29c0,9.94,20.3,2.49,20.3,16.22,0,5.91-5.13,9.8-12.77,9.8-8.78,0-12.48-5.14-12.72-11h3.46c.38,5.14,4,7.83,9.36,7.83C84.85,34.5,88.4,32.29,88.4,28.11Z" fill="#05003b"/>
        <path id="Path_643-18" data-name="Path 643" d="M100.21,25.76c.33,4.95,3.55,8.74,8.69,8.74a7.91,7.91,0,0,0,7.68-5.14h3.55a11.41,11.41,0,0,1-11.28,8.21c-7.73,0-12-5.95-12-12.82S101.46,12,108.8,12s11.76,5.57,11.76,12.49v1.29ZM100.3,23h16.85c-.43-4.71-3.55-7.92-8.35-7.92S100.88,18.46,100.3,23Z" fill="#05003b"/>
        <path id="Path_644-18" data-name="Path 644" d="M136.3,37.57c-7.48,0-11.52-6.05-11.52-12.77S128.82,12,136.3,12c4.47,0,7.59,2,9.27,5.09V12.56h3.26V47h-3.41V32.58C143.79,35.55,140.77,37.57,136.3,37.57Zm.7-22.51c-5.48,0-8.74,4.32-8.74,9.74s3.26,9.75,8.74,9.75,8.59-4.37,8.59-9.75S142.45,15.06,137,15.06Z" fill="#05003b"/>
        <path id="Path_645-18" data-name="Path 645" d="M156.51,27.73V12.56h3.41V27.49c0,4.42,2.35,7.1,6.72,7.1s6.72-2.68,6.72-7.1V12.56h3.41V27.73c0,5.42-3.22,9.84-10.13,9.84S156.51,33.15,156.51,27.73Z" fill="#05003b"/>
        <path id="Path_646-18" data-name="Path 646" d="M186,25.76c.34,4.95,3.55,8.74,8.69,8.74a7.9,7.9,0,0,0,7.68-5.14h3.55a11.41,11.41,0,0,1-11.28,8.21c-7.73,0-12.05-5.95-12.05-12.82S187.23,12,194.57,12s11.77,5.57,11.77,12.49c0,.52-.05,1.29-.05,1.29Zm.1-2.78h16.85c-.43-4.71-3.56-7.92-8.36-7.92s-7.94,3.4-8.51,7.94Z" fill="#05003b"/>
        <path id="Path_647-18" data-name="Path 647" d="M215.65,16.3a8.87,8.87,0,0,1,8.06-4.3c6,0,9.26,4,9.26,9.41V37h-3.4V22.07c0-4.42-2.07-7.11-6.44-7.11-4.12,0-7.34,2.59-7.34,7.49V37h-3.41V12.56h3.27Z" fill="#05003b"/>
        <path id="Path_648-18" data-name="Path 648" d="M245,37h-3.41V15.44H237V12.56h4.65v-7H245v7h5v2.88h-5Z" fill="#05003b"/>
        <circle id="Ellipse_95-18" data-name="Ellipse 95" cx="8.2" cy="8.2" r="8.2" transform="translate(41.58 0)" fill="#05003b"/>
        <circle id="Ellipse_96-18" data-name="Ellipse 96" cx="8.2" cy="8.2" r="8.2" transform="translate(0 0)" fill="#05003b"/>
        <circle id="Ellipse_97-18" data-name="Ellipse 97" cx="8.2" cy="8.2" r="8.2" transform="translate(0 19.85)" fill="#05003b"/>
        <circle id="Ellipse_98-18" data-name="Ellipse 98" cx="8.2" cy="8.2" r="8.2" transform="translate(20.79 19.85)" fill="#05003b"/>
        <circle id="Ellipse_99-18" data-name="Ellipse 99" cx="8.2" cy="8.2" r="8.2" transform="translate(20.79 0)" fill="#05003b"/>
      </g>
      <g id="Logo-19" data-name="Logo" transform="translate(0 136)">
        <path id="Path_642-19" data-name="Path 642" d="M88.4,28.11c0-10.8-20.21-2.64-20.21-16.32,0-4.89,4-9.6,11.67-9.6s11.61,4.8,11.76,11H88.21C88.07,8.53,85,5.36,79.9,5.36s-8.2,2.5-8.2,6.29c0,9.94,20.3,2.49,20.3,16.22,0,5.91-5.13,9.8-12.77,9.8-8.78,0-12.48-5.14-12.72-11h3.46c.38,5.14,4,7.83,9.36,7.83C84.85,34.5,88.4,32.29,88.4,28.11Z" fill="#05003b"/>
        <path id="Path_643-19" data-name="Path 643" d="M100.21,25.76c.33,4.95,3.55,8.74,8.69,8.74a7.91,7.91,0,0,0,7.68-5.14h3.55a11.41,11.41,0,0,1-11.28,8.21c-7.73,0-12-5.95-12-12.82S101.46,12,108.8,12s11.76,5.57,11.76,12.49v1.29ZM100.3,23h16.85c-.43-4.71-3.55-7.92-8.35-7.92S100.88,18.46,100.3,23Z" fill="#05003b"/>
        <path id="Path_644-19" data-name="Path 644" d="M136.3,37.57c-7.48,0-11.52-6.05-11.52-12.77S128.82,12,136.3,12c4.47,0,7.59,2,9.27,5.09V12.56h3.26V47h-3.41V32.58C143.79,35.55,140.77,37.57,136.3,37.57Zm.7-22.51c-5.48,0-8.74,4.32-8.74,9.74s3.26,9.75,8.74,9.75,8.59-4.37,8.59-9.75S142.45,15.06,137,15.06Z" fill="#05003b"/>
        <path id="Path_645-19" data-name="Path 645" d="M156.51,27.73V12.56h3.41V27.49c0,4.42,2.35,7.1,6.72,7.1s6.72-2.68,6.72-7.1V12.56h3.41V27.73c0,5.42-3.22,9.84-10.13,9.84S156.51,33.15,156.51,27.73Z" fill="#05003b"/>
        <path id="Path_646-19" data-name="Path 646" d="M186,25.76c.34,4.95,3.55,8.74,8.69,8.74a7.9,7.9,0,0,0,7.68-5.14h3.55a11.41,11.41,0,0,1-11.28,8.21c-7.73,0-12.05-5.95-12.05-12.82S187.23,12,194.57,12s11.77,5.57,11.77,12.49c0,.52-.05,1.29-.05,1.29Zm.1-2.78h16.85c-.43-4.71-3.56-7.92-8.36-7.92s-7.94,3.4-8.51,7.94Z" fill="#05003b"/>
        <path id="Path_647-19" data-name="Path 647" d="M215.65,16.3a8.87,8.87,0,0,1,8.06-4.3c6,0,9.26,4,9.26,9.41V37h-3.4V22.07c0-4.42-2.07-7.11-6.44-7.11-4.12,0-7.34,2.59-7.34,7.49V37h-3.41V12.56h3.27Z" fill="#05003b"/>
        <path id="Path_648-19" data-name="Path 648" d="M245,37h-3.41V15.44H237V12.56h4.65v-7H245v7h5v2.88h-5Z" fill="#05003b"/>
        <circle id="Ellipse_95-19" data-name="Ellipse 95" cx="8.2" cy="8.2" r="8.2" transform="translate(41.58 0)" fill="#05003b"/>
        <circle id="Ellipse_96-19" data-name="Ellipse 96" cx="8.2" cy="8.2" r="8.2" transform="translate(0 0)" fill="#05003b"/>
        <circle id="Ellipse_97-19" data-name="Ellipse 97" cx="8.2" cy="8.2" r="8.2" transform="translate(0 19.85)" fill="#05003b"/>
        <circle id="Ellipse_98-19" data-name="Ellipse 98" cx="8.2" cy="8.2" r="8.2" transform="translate(20.79 19.85)" fill="#05003b"/>
        <circle id="Ellipse_99-19" data-name="Ellipse 99" cx="8.2" cy="8.2" r="8.2" transform="translate(20.79 0)" fill="#05003b"/>
      </g>
      <g id="Logo-20" data-name="Logo" transform="translate(0 136)">
        <path id="Path_642-20" data-name="Path 642" d="M88.4,28.11c0-10.8-20.21-2.64-20.21-16.32,0-4.89,4-9.6,11.67-9.6s11.61,4.8,11.76,11H88.21C88.07,8.53,85,5.36,79.9,5.36s-8.2,2.5-8.2,6.29c0,9.94,20.3,2.49,20.3,16.22,0,5.91-5.13,9.8-12.77,9.8-8.78,0-12.48-5.14-12.72-11h3.46c.38,5.14,4,7.83,9.36,7.83C84.85,34.5,88.4,32.29,88.4,28.11Z" fill="#05003b"/>
        <path id="Path_643-20" data-name="Path 643" d="M100.21,25.76c.33,4.95,3.55,8.74,8.69,8.74a7.91,7.91,0,0,0,7.68-5.14h3.55a11.41,11.41,0,0,1-11.28,8.21c-7.73,0-12-5.95-12-12.82S101.46,12,108.8,12s11.76,5.57,11.76,12.49v1.29ZM100.3,23h16.85c-.43-4.71-3.55-7.92-8.35-7.92S100.88,18.46,100.3,23Z" fill="#05003b"/>
        <path id="Path_644-20" data-name="Path 644" d="M136.3,37.57c-7.48,0-11.52-6.05-11.52-12.77S128.82,12,136.3,12c4.47,0,7.59,2,9.27,5.09V12.56h3.26V47h-3.41V32.58C143.79,35.55,140.77,37.57,136.3,37.57Zm.7-22.51c-5.48,0-8.74,4.32-8.74,9.74s3.26,9.75,8.74,9.75,8.59-4.37,8.59-9.75S142.45,15.06,137,15.06Z" fill="#05003b"/>
        <path id="Path_645-20" data-name="Path 645" d="M156.51,27.73V12.56h3.41V27.49c0,4.42,2.35,7.1,6.72,7.1s6.72-2.68,6.72-7.1V12.56h3.41V27.73c0,5.42-3.22,9.84-10.13,9.84S156.51,33.15,156.51,27.73Z" fill="#05003b"/>
        <path id="Path_646-20" data-name="Path 646" d="M186,25.76c.34,4.95,3.55,8.74,8.69,8.74a7.9,7.9,0,0,0,7.68-5.14h3.55a11.41,11.41,0,0,1-11.28,8.21c-7.73,0-12.05-5.95-12.05-12.82S187.23,12,194.57,12s11.77,5.57,11.77,12.49c0,.52-.05,1.29-.05,1.29Zm.1-2.78h16.85c-.43-4.71-3.56-7.92-8.36-7.92s-7.94,3.4-8.51,7.94Z" fill="#05003b"/>
        <path id="Path_647-20" data-name="Path 647" d="M215.65,16.3a8.87,8.87,0,0,1,8.06-4.3c6,0,9.26,4,9.26,9.41V37h-3.4V22.07c0-4.42-2.07-7.11-6.44-7.11-4.12,0-7.34,2.59-7.34,7.49V37h-3.41V12.56h3.27Z" fill="#05003b"/>
        <path id="Path_648-20" data-name="Path 648" d="M245,37h-3.41V15.44H237V12.56h4.65v-7H245v7h5v2.88h-5Z" fill="#05003b"/>
        <circle id="Ellipse_95-20" data-name="Ellipse 95" cx="8.2" cy="8.2" r="8.2" transform="translate(41.58 0)" fill="#05003b"/>
        <circle id="Ellipse_96-20" data-name="Ellipse 96" cx="8.2" cy="8.2" r="8.2" transform="translate(0 0)" fill="#05003b"/>
        <circle id="Ellipse_97-20" data-name="Ellipse 97" cx="8.2" cy="8.2" r="8.2" transform="translate(0 19.85)" fill="#05003b"/>
        <circle id="Ellipse_98-20" data-name="Ellipse 98" cx="8.2" cy="8.2" r="8.2" transform="translate(20.79 19.85)" fill="#05003b"/>
        <circle id="Ellipse_99-20" data-name="Ellipse 99" cx="8.2" cy="8.2" r="8.2" transform="translate(20.79 0)" fill="#05003b"/>
      </g>
    </g>
    <g id="Logo-21" data-name="Logo" transform="translate(15467 -3798)">
      <path id="Path_642-21" data-name="Path 642" d="M88.4,28.11c0-10.8-20.21-2.64-20.21-16.32,0-4.89,4-9.6,11.67-9.6s11.61,4.8,11.76,11H88.21C88.07,8.53,85,5.36,79.9,5.36s-8.2,2.5-8.2,6.29c0,9.94,20.3,2.49,20.3,16.22,0,5.91-5.13,9.8-12.77,9.8-8.78,0-12.48-5.14-12.72-11h3.46c.38,5.14,4,7.83,9.36,7.83C84.85,34.5,88.4,32.29,88.4,28.11Z" fill="#05003b"/>
      <path id="Path_643-21" data-name="Path 643" d="M100.21,25.76c.33,4.95,3.55,8.74,8.69,8.74a7.91,7.91,0,0,0,7.68-5.14h3.55a11.41,11.41,0,0,1-11.28,8.21c-7.73,0-12-5.95-12-12.82S101.46,12,108.8,12s11.76,5.57,11.76,12.49v1.29ZM100.3,23h16.85c-.43-4.71-3.55-7.92-8.35-7.92S100.88,18.46,100.3,23Z" fill="#05003b"/>
      <path id="Path_644-21" data-name="Path 644" d="M136.3,37.57c-7.48,0-11.52-6.05-11.52-12.77S128.82,12,136.3,12c4.47,0,7.59,2,9.27,5.09V12.56h3.26V47h-3.41V32.58C143.79,35.55,140.77,37.57,136.3,37.57Zm.7-22.51c-5.48,0-8.74,4.32-8.74,9.74s3.26,9.75,8.74,9.75,8.59-4.37,8.59-9.75S142.45,15.06,137,15.06Z" fill="#05003b"/>
      <path id="Path_645-21" data-name="Path 645" d="M156.51,27.73V12.56h3.41V27.49c0,4.42,2.35,7.1,6.72,7.1s6.72-2.68,6.72-7.1V12.56h3.41V27.73c0,5.42-3.22,9.84-10.13,9.84S156.51,33.15,156.51,27.73Z" fill="#05003b"/>
      <path id="Path_646-21" data-name="Path 646" d="M186,25.76c.34,4.95,3.55,8.74,8.69,8.74a7.9,7.9,0,0,0,7.68-5.14h3.55a11.41,11.41,0,0,1-11.28,8.21c-7.73,0-12.05-5.95-12.05-12.82S187.23,12,194.57,12s11.77,5.57,11.77,12.49c0,.52-.05,1.29-.05,1.29Zm.1-2.78h16.85c-.43-4.71-3.56-7.92-8.36-7.92s-7.94,3.4-8.51,7.94Z" fill="#05003b"/>
      <path id="Path_647-21" data-name="Path 647" d="M215.65,16.3a8.87,8.87,0,0,1,8.06-4.3c6,0,9.26,4,9.26,9.41V37h-3.4V22.07c0-4.42-2.07-7.11-6.44-7.11-4.12,0-7.34,2.59-7.34,7.49V37h-3.41V12.56h3.27Z" fill="#05003b"/>
      <path id="Path_648-21" data-name="Path 648" d="M245,37h-3.41V15.44H237V12.56h4.65v-7H245v7h5v2.88h-5Z" fill="#05003b"/>
      <circle id="Ellipse_95-21" data-name="Ellipse 95" cx="8.2" cy="8.2" r="8.2" transform="translate(41.58 0)" fill="#05003b"/>
      <circle id="Ellipse_96-21" data-name="Ellipse 96" cx="8.2" cy="8.2" r="8.2" transform="translate(0 0)" fill="#05003b"/>
      <circle id="Ellipse_97-21" data-name="Ellipse 97" cx="8.2" cy="8.2" r="8.2" transform="translate(0 19.85)" fill="#05003b"/>
      <circle id="Ellipse_98-21" data-name="Ellipse 98" cx="8.2" cy="8.2" r="8.2" transform="translate(20.79 19.85)" fill="#05003b"/>
      <circle id="Ellipse_99-21" data-name="Ellipse 99" cx="8.2" cy="8.2" r="8.2" transform="translate(20.79 0)" fill="#05003b"/>
    </g>
    <g id="Logo-22" data-name="Logo" transform="translate(15467 -3798)">
      <path id="Path_642-22" data-name="Path 642" d="M88.4,28.11c0-10.8-20.21-2.64-20.21-16.32,0-4.89,4-9.6,11.67-9.6s11.61,4.8,11.76,11H88.21C88.07,8.53,85,5.36,79.9,5.36s-8.2,2.5-8.2,6.29c0,9.94,20.3,2.49,20.3,16.22,0,5.91-5.13,9.8-12.77,9.8-8.78,0-12.48-5.14-12.72-11h3.46c.38,5.14,4,7.83,9.36,7.83C84.85,34.5,88.4,32.29,88.4,28.11Z" fill="#05003b"/>
      <path id="Path_643-22" data-name="Path 643" d="M100.21,25.76c.33,4.95,3.55,8.74,8.69,8.74a7.91,7.91,0,0,0,7.68-5.14h3.55a11.41,11.41,0,0,1-11.28,8.21c-7.73,0-12-5.95-12-12.82S101.46,12,108.8,12s11.76,5.57,11.76,12.49v1.29ZM100.3,23h16.85c-.43-4.71-3.55-7.92-8.35-7.92S100.88,18.46,100.3,23Z" fill="#05003b"/>
      <path id="Path_644-22" data-name="Path 644" d="M136.3,37.57c-7.48,0-11.52-6.05-11.52-12.77S128.82,12,136.3,12c4.47,0,7.59,2,9.27,5.09V12.56h3.26V47h-3.41V32.58C143.79,35.55,140.77,37.57,136.3,37.57Zm.7-22.51c-5.48,0-8.74,4.32-8.74,9.74s3.26,9.75,8.74,9.75,8.59-4.37,8.59-9.75S142.45,15.06,137,15.06Z" fill="#05003b"/>
      <path id="Path_645-22" data-name="Path 645" d="M156.51,27.73V12.56h3.41V27.49c0,4.42,2.35,7.1,6.72,7.1s6.72-2.68,6.72-7.1V12.56h3.41V27.73c0,5.42-3.22,9.84-10.13,9.84S156.51,33.15,156.51,27.73Z" fill="#05003b"/>
      <path id="Path_646-22" data-name="Path 646" d="M186,25.76c.34,4.95,3.55,8.74,8.69,8.74a7.9,7.9,0,0,0,7.68-5.14h3.55a11.41,11.41,0,0,1-11.28,8.21c-7.73,0-12.05-5.95-12.05-12.82S187.23,12,194.57,12s11.77,5.57,11.77,12.49c0,.52-.05,1.29-.05,1.29Zm.1-2.78h16.85c-.43-4.71-3.56-7.92-8.36-7.92s-7.94,3.4-8.51,7.94Z" fill="#05003b"/>
      <path id="Path_647-22" data-name="Path 647" d="M215.65,16.3a8.87,8.87,0,0,1,8.06-4.3c6,0,9.26,4,9.26,9.41V37h-3.4V22.07c0-4.42-2.07-7.11-6.44-7.11-4.12,0-7.34,2.59-7.34,7.49V37h-3.41V12.56h3.27Z" fill="#05003b"/>
      <path id="Path_648-22" data-name="Path 648" d="M245,37h-3.41V15.44H237V12.56h4.65v-7H245v7h5v2.88h-5Z" fill="#05003b"/>
      <circle id="Ellipse_95-22" data-name="Ellipse 95" cx="8.2" cy="8.2" r="8.2" transform="translate(41.58 0)" fill="#05003b"/>
      <circle id="Ellipse_96-22" data-name="Ellipse 96" cx="8.2" cy="8.2" r="8.2" transform="translate(0 0)" fill="#05003b"/>
      <circle id="Ellipse_97-22" data-name="Ellipse 97" cx="8.2" cy="8.2" r="8.2" transform="translate(0 19.85)" fill="#05003b"/>
      <circle id="Ellipse_98-22" data-name="Ellipse 98" cx="8.2" cy="8.2" r="8.2" transform="translate(20.79 19.85)" fill="#05003b"/>
      <circle id="Ellipse_99-22" data-name="Ellipse 99" cx="8.2" cy="8.2" r="8.2" transform="translate(20.79 0)" fill="#05003b"/>
    </g>
    <g id="Logo-23" data-name="Logo" transform="translate(15467 -3798)">
      <path id="Path_642-23" data-name="Path 642" d="M88.4,28.11c0-10.8-20.21-2.64-20.21-16.32,0-4.89,4-9.6,11.67-9.6s11.61,4.8,11.76,11H88.21C88.07,8.53,85,5.36,79.9,5.36s-8.2,2.5-8.2,6.29c0,9.94,20.3,2.49,20.3,16.22,0,5.91-5.13,9.8-12.77,9.8-8.78,0-12.48-5.14-12.72-11h3.46c.38,5.14,4,7.83,9.36,7.83C84.85,34.5,88.4,32.29,88.4,28.11Z" fill="#05003b"/>
      <path id="Path_643-23" data-name="Path 643" d="M100.21,25.76c.33,4.95,3.55,8.74,8.69,8.74a7.91,7.91,0,0,0,7.68-5.14h3.55a11.41,11.41,0,0,1-11.28,8.21c-7.73,0-12-5.95-12-12.82S101.46,12,108.8,12s11.76,5.57,11.76,12.49v1.29ZM100.3,23h16.85c-.43-4.71-3.55-7.92-8.35-7.92S100.88,18.46,100.3,23Z" fill="#05003b"/>
      <path id="Path_644-23" data-name="Path 644" d="M136.3,37.57c-7.48,0-11.52-6.05-11.52-12.77S128.82,12,136.3,12c4.47,0,7.59,2,9.27,5.09V12.56h3.26V47h-3.41V32.58C143.79,35.55,140.77,37.57,136.3,37.57Zm.7-22.51c-5.48,0-8.74,4.32-8.74,9.74s3.26,9.75,8.74,9.75,8.59-4.37,8.59-9.75S142.45,15.06,137,15.06Z" fill="#05003b"/>
      <path id="Path_645-23" data-name="Path 645" d="M156.51,27.73V12.56h3.41V27.49c0,4.42,2.35,7.1,6.72,7.1s6.72-2.68,6.72-7.1V12.56h3.41V27.73c0,5.42-3.22,9.84-10.13,9.84S156.51,33.15,156.51,27.73Z" fill="#05003b"/>
      <path id="Path_646-23" data-name="Path 646" d="M186,25.76c.34,4.95,3.55,8.74,8.69,8.74a7.9,7.9,0,0,0,7.68-5.14h3.55a11.41,11.41,0,0,1-11.28,8.21c-7.73,0-12.05-5.95-12.05-12.82S187.23,12,194.57,12s11.77,5.57,11.77,12.49c0,.52-.05,1.29-.05,1.29Zm.1-2.78h16.85c-.43-4.71-3.56-7.92-8.36-7.92s-7.94,3.4-8.51,7.94Z" fill="#05003b"/>
      <path id="Path_647-23" data-name="Path 647" d="M215.65,16.3a8.87,8.87,0,0,1,8.06-4.3c6,0,9.26,4,9.26,9.41V37h-3.4V22.07c0-4.42-2.07-7.11-6.44-7.11-4.12,0-7.34,2.59-7.34,7.49V37h-3.41V12.56h3.27Z" fill="#05003b"/>
      <path id="Path_648-23" data-name="Path 648" d="M245,37h-3.41V15.44H237V12.56h4.65v-7H245v7h5v2.88h-5Z" fill="#05003b"/>
      <circle id="Ellipse_95-23" data-name="Ellipse 95" cx="8.2" cy="8.2" r="8.2" transform="translate(41.58 0)" fill="#05003b"/>
      <circle id="Ellipse_96-23" data-name="Ellipse 96" cx="8.2" cy="8.2" r="8.2" transform="translate(0 0)" fill="#05003b"/>
      <circle id="Ellipse_97-23" data-name="Ellipse 97" cx="8.2" cy="8.2" r="8.2" transform="translate(0 19.85)" fill="#05003b"/>
      <circle id="Ellipse_98-23" data-name="Ellipse 98" cx="8.2" cy="8.2" r="8.2" transform="translate(20.79 19.85)" fill="#05003b"/>
      <circle id="Ellipse_99-23" data-name="Ellipse 99" cx="8.2" cy="8.2" r="8.2" transform="translate(20.79 0)" fill="#05003b"/>
    </g>
    <g id="Logo-24" data-name="Logo" transform="translate(15467 -3798)">
      <path id="Path_642-24" data-name="Path 642" d="M88.4,28.11c0-10.8-20.21-2.64-20.21-16.32,0-4.89,4-9.6,11.67-9.6s11.61,4.8,11.76,11H88.21C88.07,8.53,85,5.36,79.9,5.36s-8.2,2.5-8.2,6.29c0,9.94,20.3,2.49,20.3,16.22,0,5.91-5.13,9.8-12.77,9.8-8.78,0-12.48-5.14-12.72-11h3.46c.38,5.14,4,7.83,9.36,7.83C84.85,34.5,88.4,32.29,88.4,28.11Z"/>
      <path id="Path_643-24" data-name="Path 643" d="M100.21,25.76c.33,4.95,3.55,8.74,8.69,8.74a7.91,7.91,0,0,0,7.68-5.14h3.55a11.41,11.41,0,0,1-11.28,8.21c-7.73,0-12-5.95-12-12.82S101.46,12,108.8,12s11.76,5.57,11.76,12.49v1.29ZM100.3,23h16.85c-.43-4.71-3.55-7.92-8.35-7.92S100.88,18.46,100.3,23Z"/>
      <path id="Path_644-24" data-name="Path 644" d="M136.3,37.57c-7.48,0-11.52-6.05-11.52-12.77S128.82,12,136.3,12c4.47,0,7.59,2,9.27,5.09V12.56h3.26V47h-3.41V32.58C143.79,35.55,140.77,37.57,136.3,37.57Zm.7-22.51c-5.48,0-8.74,4.32-8.74,9.74s3.26,9.75,8.74,9.75,8.59-4.37,8.59-9.75S142.45,15.06,137,15.06Z"/>
      <path id="Path_645-24" data-name="Path 645" d="M156.51,27.73V12.56h3.41V27.49c0,4.42,2.35,7.1,6.72,7.1s6.72-2.68,6.72-7.1V12.56h3.41V27.73c0,5.42-3.22,9.84-10.13,9.84S156.51,33.15,156.51,27.73Z"/>
      <path id="Path_646-24" data-name="Path 646" d="M186,25.76c.34,4.95,3.55,8.74,8.69,8.74a7.9,7.9,0,0,0,7.68-5.14h3.55a11.41,11.41,0,0,1-11.28,8.21c-7.73,0-12.05-5.95-12.05-12.82S187.23,12,194.57,12s11.77,5.57,11.77,12.49c0,.52-.05,1.29-.05,1.29Zm.1-2.78h16.85c-.43-4.71-3.56-7.92-8.36-7.92s-7.94,3.4-8.51,7.94Z"/>
      <path id="Path_647-24" data-name="Path 647" d="M215.65,16.3a8.87,8.87,0,0,1,8.06-4.3c6,0,9.26,4,9.26,9.41V37h-3.4V22.07c0-4.42-2.07-7.11-6.44-7.11-4.12,0-7.34,2.59-7.34,7.49V37h-3.41V12.56h3.27Z"/>
      <path id="Path_648-24" data-name="Path 648" d="M245,37h-3.41V15.44H237V12.56h4.65v-7H245v7h5v2.88h-5Z"/>
      <circle id="Ellipse_95-24" data-name="Ellipse 95" cx="8.2" cy="8.2" r="8.2" transform="translate(41.58 0)"/>
      <circle id="Ellipse_96-24" data-name="Ellipse 96" cx="8.2" cy="8.2" r="8.2" transform="translate(0 0)"/>
      <circle id="Ellipse_97-24" data-name="Ellipse 97" cx="8.2" cy="8.2" r="8.2" transform="translate(0 19.85)"/>
      <circle id="Ellipse_98-24" data-name="Ellipse 98" cx="8.2" cy="8.2" r="8.2" transform="translate(20.79 19.85)"/>
      <circle id="Ellipse_99-24" data-name="Ellipse 99" cx="8.2" cy="8.2" r="8.2" transform="translate(20.79 0)" fill="#43e3a1" stroke="#43e3a1" stroke-width="1"/>
    </g>
  </g>
</svg>
